<?xml version='1.0' encoding='UTF-8'?>
<svg width="41mm" height="41mm" version="1.1" viewBox="0 0 41 41" xmlns="http://www.w3.org/2000/svg"><path d="M4,4H5V5H4zM5,4H6V5H5zM6,4H7V5H6zM7,4H8V5H7zM8,4H9V5H8zM9,4H10V5H9zM10,4H11V5H10zM12,4.5A0.5,0.5 0 0 0 13,4.5A0.5,0.5 0 0 0 12,4.5zM13,4.5A0.5,0.5 0 0 0 14,4.5A0.5,0.5 0 0 0 13,4.5zM14,4.5A0.5,0.5 0 0 0 15,4.5A0.5,0.5 0 0 0 14,4.5zM20,4.5A0.5,0.5 0 0 0 21,4.5A0.5,0.5 0 0 0 20,4.5zM21,4.5A0.5,0.5 0 0 0 22,4.5A0.5,0.5 0 0 0 21,4.5zM23,4.5A0.5,0.5 0 0 0 24,4.5A0.5,0.5 0 0 0 23,4.5zM24,4.5A0.5,0.5 0 0 0 25,4.5A0.5,0.5 0 0 0 24,4.5zM25,4.5A0.5,0.5 0 0 0 26,4.5A0.5,0.5 0 0 0 25,4.5zM26,4.5A0.5,0.5 0 0 0 27,4.5A0.5,0.5 0 0 0 26,4.5zM27,4.5A0.5,0.5 0 0 0 28,4.5A0.5,0.5 0 0 0 27,4.5zM30,4H31V5H30zM31,4H32V5H31zM32,4H33V5H32zM33,4H34V5H33zM34,4H35V5H34zM35,4H36V5H35zM36,4H37V5H36zM4,5H5V6H4zM10,5H11V6H10zM15,5.5A0.5,0.5 0 0 0 16,5.5A0.5,0.5 0 0 0 15,5.5zM18,5.5A0.5,0.5 0 0 0 19,5.5A0.5,0.5 0 0 0 18,5.5zM19,5.5A0.5,0.5 0 0 0 20,5.5A0.5,0.5 0 0 0 19,5.5zM21,5.5A0.5,0.5 0 0 0 22,5.5A0.5,0.5 0 0 0 21,5.5zM24,5.5A0.5,0.5 0 0 0 25,5.5A0.5,0.5 0 0 0 24,5.5zM25,5.5A0.5,0.5 0 0 0 26,5.5A0.5,0.5 0 0 0 25,5.5zM26,5.5A0.5,0.5 0 0 0 27,5.5A0.5,0.5 0 0 0 26,5.5zM30,5H31V6H30zM36,5H37V6H36zM4,6H5V7H4zM6,6H7V7H6zM7,6H8V7H7zM8,6H9V7H8zM10,6H11V7H10zM13,6.5A0.5,0.5 0 0 0 14,6.5A0.5,0.5 0 0 0 13,6.5zM15,6.5A0.5,0.5 0 0 0 16,6.5A0.5,0.5 0 0 0 15,6.5zM18,6.5A0.5,0.5 0 0 0 19,6.5A0.5,0.5 0 0 0 18,6.5zM19,6.5A0.5,0.5 0 0 0 20,6.5A0.5,0.5 0 0 0 19,6.5zM20,6.5A0.5,0.5 0 0 0 21,6.5A0.5,0.5 0 0 0 20,6.5zM21,6.5A0.5,0.5 0 0 0 22,6.5A0.5,0.5 0 0 0 21,6.5zM22,6.5A0.5,0.5 0 0 0 23,6.5A0.5,0.5 0 0 0 22,6.5zM23,6.5A0.5,0.5 0 0 0 24,6.5A0.5,0.5 0 0 0 23,6.5zM24,6.5A0.5,0.5 0 0 0 25,6.5A0.5,0.5 0 0 0 24,6.5zM25,6.5A0.5,0.5 0 0 0 26,6.5A0.5,0.5 0 0 0 25,6.5zM26,6.5A0.5,0.5 0 0 0 27,6.5A0.5,0.5 0 0 0 26,6.5zM27,6.5A0.5,0.5 0 0 0 28,6.5A0.5,0.5 0 0 0 27,6.5zM30,6H31V7H30zM32,6H33V7H32zM33,6H34V7H33zM34,6H35V7H34zM36,6H37V7H36zM4,7H5V8H4zM6,7H7V8H6zM7,7H8V8H7zM8,7H9V8H8zM10,7H11V8H10zM13,7.5A0.5,0.5 0 0 0 14,7.5A0.5,0.5 0 0 0 13,7.5zM15,7.5A0.5,0.5 0 0 0 16,7.5A0.5,0.5 0 0 0 15,7.5zM16,7.5A0.5,0.5 0 0 0 17,7.5A0.5,0.5 0 0 0 16,7.5zM18,7.5A0.5,0.5 0 0 0 19,7.5A0.5,0.5 0 0 0 18,7.5zM19,7.5A0.5,0.5 0 0 0 20,7.5A0.5,0.5 0 0 0 19,7.5zM23,7.5A0.5,0.5 0 0 0 24,7.5A0.5,0.5 0 0 0 23,7.5zM24,7.5A0.5,0.5 0 0 0 25,7.5A0.5,0.5 0 0 0 24,7.5zM27,7.5A0.5,0.5 0 0 0 28,7.5A0.5,0.5 0 0 0 27,7.5zM30,7H31V8H30zM32,7H33V8H32zM33,7H34V8H33zM34,7H35V8H34zM36,7H37V8H36zM4,8H5V9H4zM6,8H7V9H6zM7,8H8V9H7zM8,8H9V9H8zM10,8H11V9H10zM12,8.5A0.5,0.5 0 0 0 13,8.5A0.5,0.5 0 0 0 12,8.5zM13,8.5A0.5,0.5 0 0 0 14,8.5A0.5,0.5 0 0 0 13,8.5zM17,8.5A0.5,0.5 0 0 0 18,8.5A0.5,0.5 0 0 0 17,8.5zM18,8.5A0.5,0.5 0 0 0 19,8.5A0.5,0.5 0 0 0 18,8.5zM22,8.5A0.5,0.5 0 0 0 23,8.5A0.5,0.5 0 0 0 22,8.5zM25,8.5A0.5,0.5 0 0 0 26,8.5A0.5,0.5 0 0 0 25,8.5zM27,8.5A0.5,0.5 0 0 0 28,8.5A0.5,0.5 0 0 0 27,8.5zM28,8.5A0.5,0.5 0 0 0 29,8.5A0.5,0.5 0 0 0 28,8.5zM30,8H31V9H30zM32,8H33V9H32zM33,8H34V9H33zM34,8H35V9H34zM36,8H37V9H36zM4,9H5V10H4zM10,9H11V10H10zM12,9.5A0.5,0.5 0 0 0 13,9.5A0.5,0.5 0 0 0 12,9.5zM14,9.5A0.5,0.5 0 0 0 15,9.5A0.5,0.5 0 0 0 14,9.5zM16,9.5A0.5,0.5 0 0 0 17,9.5A0.5,0.5 0 0 0 16,9.5zM17,9.5A0.5,0.5 0 0 0 18,9.5A0.5,0.5 0 0 0 17,9.5zM18,9.5A0.5,0.5 0 0 0 19,9.5A0.5,0.5 0 0 0 18,9.5zM19,9.5A0.5,0.5 0 0 0 20,9.5A0.5,0.5 0 0 0 19,9.5zM24,9.5A0.5,0.5 0 0 0 25,9.5A0.5,0.5 0 0 0 24,9.5zM28,9.5A0.5,0.5 0 0 0 29,9.5A0.5,0.5 0 0 0 28,9.5zM30,9H31V10H30zM36,9H37V10H36zM4,10H5V11H4zM5,10H6V11H5zM6,10H7V11H6zM7,10H8V11H7zM8,10H9V11H8zM9,10H10V11H9zM10,10H11V11H10zM12,10.5A0.5,0.5 0 0 0 13,10.5A0.5,0.5 0 0 0 12,10.5zM14,10.5A0.5,0.5 0 0 0 15,10.5A0.5,0.5 0 0 0 14,10.5zM16,10.5A0.5,0.5 0 0 0 17,10.5A0.5,0.5 0 0 0 16,10.5zM18,10.5A0.5,0.5 0 0 0 19,10.5A0.5,0.5 0 0 0 18,10.5zM20,10.5A0.5,0.5 0 0 0 21,10.5A0.5,0.5 0 0 0 20,10.5zM22,10.5A0.5,0.5 0 0 0 23,10.5A0.5,0.5 0 0 0 22,10.5zM24,10.5A0.5,0.5 0 0 0 25,10.5A0.5,0.5 0 0 0 24,10.5zM26,10.5A0.5,0.5 0 0 0 27,10.5A0.5,0.5 0 0 0 26,10.5zM28,10.5A0.5,0.5 0 0 0 29,10.5A0.5,0.5 0 0 0 28,10.5zM30,10H31V11H30zM31,10H32V11H31zM32,10H33V11H32zM33,10H34V11H33zM34,10H35V11H34zM35,10H36V11H35zM36,10H37V11H36zM13,11.5A0.5,0.5 0 0 0 14,11.5A0.5,0.5 0 0 0 13,11.5zM14,11.5A0.5,0.5 0 0 0 15,11.5A0.5,0.5 0 0 0 14,11.5zM15,11.5A0.5,0.5 0 0 0 16,11.5A0.5,0.5 0 0 0 15,11.5zM19,11.5A0.5,0.5 0 0 0 20,11.5A0.5,0.5 0 0 0 19,11.5zM22,11.5A0.5,0.5 0 0 0 23,11.5A0.5,0.5 0 0 0 22,11.5zM25,11.5A0.5,0.5 0 0 0 26,11.5A0.5,0.5 0 0 0 25,11.5zM28,11.5A0.5,0.5 0 0 0 29,11.5A0.5,0.5 0 0 0 28,11.5zM5,12.5A0.5,0.5 0 0 0 6,12.5A0.5,0.5 0 0 0 5,12.5zM6,12.5A0.5,0.5 0 0 0 7,12.5A0.5,0.5 0 0 0 6,12.5zM7,12.5A0.5,0.5 0 0 0 8,12.5A0.5,0.5 0 0 0 7,12.5zM8,12.5A0.5,0.5 0 0 0 9,12.5A0.5,0.5 0 0 0 8,12.5zM9,12.5A0.5,0.5 0 0 0 10,12.5A0.5,0.5 0 0 0 9,12.5zM10,12.5A0.5,0.5 0 0 0 11,12.5A0.5,0.5 0 0 0 10,12.5zM11,12.5A0.5,0.5 0 0 0 12,12.5A0.5,0.5 0 0 0 11,12.5zM13,12.5A0.5,0.5 0 0 0 14,12.5A0.5,0.5 0 0 0 13,12.5zM15,12.5A0.5,0.5 0 0 0 16,12.5A0.5,0.5 0 0 0 15,12.5zM16,12.5A0.5,0.5 0 0 0 17,12.5A0.5,0.5 0 0 0 16,12.5zM17,12.5A0.5,0.5 0 0 0 18,12.5A0.5,0.5 0 0 0 17,12.5zM21,12.5A0.5,0.5 0 0 0 22,12.5A0.5,0.5 0 0 0 21,12.5zM26,12.5A0.5,0.5 0 0 0 27,12.5A0.5,0.5 0 0 0 26,12.5zM28,12.5A0.5,0.5 0 0 0 29,12.5A0.5,0.5 0 0 0 28,12.5zM31,12.5A0.5,0.5 0 0 0 32,12.5A0.5,0.5 0 0 0 31,12.5zM32,12.5A0.5,0.5 0 0 0 33,12.5A0.5,0.5 0 0 0 32,12.5zM36,12.5A0.5,0.5 0 0 0 37,12.5A0.5,0.5 0 0 0 36,12.5zM7,13.5A0.5,0.5 0 0 0 8,13.5A0.5,0.5 0 0 0 7,13.5zM11,13.5A0.5,0.5 0 0 0 12,13.5A0.5,0.5 0 0 0 11,13.5zM13,13.5A0.5,0.5 0 0 0 14,13.5A0.5,0.5 0 0 0 13,13.5zM14,13.5A0.5,0.5 0 0 0 15,13.5A0.5,0.5 0 0 0 14,13.5zM18,13.5A0.5,0.5 0 0 0 19,13.5A0.5,0.5 0 0 0 18,13.5zM20,13.5A0.5,0.5 0 0 0 21,13.5A0.5,0.5 0 0 0 20,13.5zM22,13.5A0.5,0.5 0 0 0 23,13.5A0.5,0.5 0 0 0 22,13.5zM23,13.5A0.5,0.5 0 0 0 24,13.5A0.5,0.5 0 0 0 23,13.5zM27,13.5A0.5,0.5 0 0 0 28,13.5A0.5,0.5 0 0 0 27,13.5zM30,13.5A0.5,0.5 0 0 0 31,13.5A0.5,0.5 0 0 0 30,13.5zM31,13.5A0.5,0.5 0 0 0 32,13.5A0.5,0.5 0 0 0 31,13.5zM33,13.5A0.5,0.5 0 0 0 34,13.5A0.5,0.5 0 0 0 33,13.5zM34,13.5A0.5,0.5 0 0 0 35,13.5A0.5,0.5 0 0 0 34,13.5zM35,13.5A0.5,0.5 0 0 0 36,13.5A0.5,0.5 0 0 0 35,13.5zM36,13.5A0.5,0.5 0 0 0 37,13.5A0.5,0.5 0 0 0 36,13.5zM4,14.5A0.5,0.5 0 0 0 5,14.5A0.5,0.5 0 0 0 4,14.5zM5,14.5A0.5,0.5 0 0 0 6,14.5A0.5,0.5 0 0 0 5,14.5zM6,14.5A0.5,0.5 0 0 0 7,14.5A0.5,0.5 0 0 0 6,14.5zM8,14.5A0.5,0.5 0 0 0 9,14.5A0.5,0.5 0 0 0 8,14.5zM9,14.5A0.5,0.5 0 0 0 10,14.5A0.5,0.5 0 0 0 9,14.5zM10,14.5A0.5,0.5 0 0 0 11,14.5A0.5,0.5 0 0 0 10,14.5zM13,14.5A0.5,0.5 0 0 0 14,14.5A0.5,0.5 0 0 0 13,14.5zM14,14.5A0.5,0.5 0 0 0 15,14.5A0.5,0.5 0 0 0 14,14.5zM16,14.5A0.5,0.5 0 0 0 17,14.5A0.5,0.5 0 0 0 16,14.5zM17,14.5A0.5,0.5 0 0 0 18,14.5A0.5,0.5 0 0 0 17,14.5zM22,14.5A0.5,0.5 0 0 0 23,14.5A0.5,0.5 0 0 0 22,14.5zM25,14.5A0.5,0.5 0 0 0 26,14.5A0.5,0.5 0 0 0 25,14.5zM26,14.5A0.5,0.5 0 0 0 27,14.5A0.5,0.5 0 0 0 26,14.5zM28,14.5A0.5,0.5 0 0 0 29,14.5A0.5,0.5 0 0 0 28,14.5zM29,14.5A0.5,0.5 0 0 0 30,14.5A0.5,0.5 0 0 0 29,14.5zM32,14.5A0.5,0.5 0 0 0 33,14.5A0.5,0.5 0 0 0 32,14.5zM34,14.5A0.5,0.5 0 0 0 35,14.5A0.5,0.5 0 0 0 34,14.5zM35,14.5A0.5,0.5 0 0 0 36,14.5A0.5,0.5 0 0 0 35,14.5zM9,15.5A0.5,0.5 0 0 0 10,15.5A0.5,0.5 0 0 0 9,15.5zM12,15.5A0.5,0.5 0 0 0 13,15.5A0.5,0.5 0 0 0 12,15.5zM13,15.5A0.5,0.5 0 0 0 14,15.5A0.5,0.5 0 0 0 13,15.5zM15,15.5A0.5,0.5 0 0 0 16,15.5A0.5,0.5 0 0 0 15,15.5zM17,15.5A0.5,0.5 0 0 0 18,15.5A0.5,0.5 0 0 0 17,15.5zM18,15.5A0.5,0.5 0 0 0 19,15.5A0.5,0.5 0 0 0 18,15.5zM24,15.5A0.5,0.5 0 0 0 25,15.5A0.5,0.5 0 0 0 24,15.5zM25,15.5A0.5,0.5 0 0 0 26,15.5A0.5,0.5 0 0 0 25,15.5zM26,15.5A0.5,0.5 0 0 0 27,15.5A0.5,0.5 0 0 0 26,15.5zM32,15.5A0.5,0.5 0 0 0 33,15.5A0.5,0.5 0 0 0 32,15.5zM33,15.5A0.5,0.5 0 0 0 34,15.5A0.5,0.5 0 0 0 33,15.5zM34,15.5A0.5,0.5 0 0 0 35,15.5A0.5,0.5 0 0 0 34,15.5zM35,15.5A0.5,0.5 0 0 0 36,15.5A0.5,0.5 0 0 0 35,15.5zM36,15.5A0.5,0.5 0 0 0 37,15.5A0.5,0.5 0 0 0 36,15.5zM6,16.5A0.5,0.5 0 0 0 7,16.5A0.5,0.5 0 0 0 6,16.5zM8,16.5A0.5,0.5 0 0 0 9,16.5A0.5,0.5 0 0 0 8,16.5zM10,16.5A0.5,0.5 0 0 0 11,16.5A0.5,0.5 0 0 0 10,16.5zM11,16.5A0.5,0.5 0 0 0 12,16.5A0.5,0.5 0 0 0 11,16.5zM18,16.5A0.5,0.5 0 0 0 19,16.5A0.5,0.5 0 0 0 18,16.5zM19,16.5A0.5,0.5 0 0 0 20,16.5A0.5,0.5 0 0 0 19,16.5zM22,16.5A0.5,0.5 0 0 0 23,16.5A0.5,0.5 0 0 0 22,16.5zM26,16.5A0.5,0.5 0 0 0 27,16.5A0.5,0.5 0 0 0 26,16.5zM27,16.5A0.5,0.5 0 0 0 28,16.5A0.5,0.5 0 0 0 27,16.5zM32,16.5A0.5,0.5 0 0 0 33,16.5A0.5,0.5 0 0 0 32,16.5zM33,16.5A0.5,0.5 0 0 0 34,16.5A0.5,0.5 0 0 0 33,16.5zM36,16.5A0.5,0.5 0 0 0 37,16.5A0.5,0.5 0 0 0 36,16.5zM7,17.5A0.5,0.5 0 0 0 8,17.5A0.5,0.5 0 0 0 7,17.5zM8,17.5A0.5,0.5 0 0 0 9,17.5A0.5,0.5 0 0 0 8,17.5zM11,17.5A0.5,0.5 0 0 0 12,17.5A0.5,0.5 0 0 0 11,17.5zM13,17.5A0.5,0.5 0 0 0 14,17.5A0.5,0.5 0 0 0 13,17.5zM14,17.5A0.5,0.5 0 0 0 15,17.5A0.5,0.5 0 0 0 14,17.5zM15,17.5A0.5,0.5 0 0 0 16,17.5A0.5,0.5 0 0 0 15,17.5zM17,17.5A0.5,0.5 0 0 0 18,17.5A0.5,0.5 0 0 0 17,17.5zM20,17.5A0.5,0.5 0 0 0 21,17.5A0.5,0.5 0 0 0 20,17.5zM21,17.5A0.5,0.5 0 0 0 22,17.5A0.5,0.5 0 0 0 21,17.5zM24,17.5A0.5,0.5 0 0 0 25,17.5A0.5,0.5 0 0 0 24,17.5zM25,17.5A0.5,0.5 0 0 0 26,17.5A0.5,0.5 0 0 0 25,17.5zM27,17.5A0.5,0.5 0 0 0 28,17.5A0.5,0.5 0 0 0 27,17.5zM28,17.5A0.5,0.5 0 0 0 29,17.5A0.5,0.5 0 0 0 28,17.5zM30,17.5A0.5,0.5 0 0 0 31,17.5A0.5,0.5 0 0 0 30,17.5zM31,17.5A0.5,0.5 0 0 0 32,17.5A0.5,0.5 0 0 0 31,17.5zM34,17.5A0.5,0.5 0 0 0 35,17.5A0.5,0.5 0 0 0 34,17.5zM35,17.5A0.5,0.5 0 0 0 36,17.5A0.5,0.5 0 0 0 35,17.5zM36,17.5A0.5,0.5 0 0 0 37,17.5A0.5,0.5 0 0 0 36,17.5zM4,18.5A0.5,0.5 0 0 0 5,18.5A0.5,0.5 0 0 0 4,18.5zM6,18.5A0.5,0.5 0 0 0 7,18.5A0.5,0.5 0 0 0 6,18.5zM7,18.5A0.5,0.5 0 0 0 8,18.5A0.5,0.5 0 0 0 7,18.5zM9,18.5A0.5,0.5 0 0 0 10,18.5A0.5,0.5 0 0 0 9,18.5zM10,18.5A0.5,0.5 0 0 0 11,18.5A0.5,0.5 0 0 0 10,18.5zM13,18.5A0.5,0.5 0 0 0 14,18.5A0.5,0.5 0 0 0 13,18.5zM14,18.5A0.5,0.5 0 0 0 15,18.5A0.5,0.5 0 0 0 14,18.5zM15,18.5A0.5,0.5 0 0 0 16,18.5A0.5,0.5 0 0 0 15,18.5zM16,18.5A0.5,0.5 0 0 0 17,18.5A0.5,0.5 0 0 0 16,18.5zM17,18.5A0.5,0.5 0 0 0 18,18.5A0.5,0.5 0 0 0 17,18.5zM18,18.5A0.5,0.5 0 0 0 19,18.5A0.5,0.5 0 0 0 18,18.5zM21,18.5A0.5,0.5 0 0 0 22,18.5A0.5,0.5 0 0 0 21,18.5zM23,18.5A0.5,0.5 0 0 0 24,18.5A0.5,0.5 0 0 0 23,18.5zM25,18.5A0.5,0.5 0 0 0 26,18.5A0.5,0.5 0 0 0 25,18.5zM26,18.5A0.5,0.5 0 0 0 27,18.5A0.5,0.5 0 0 0 26,18.5zM29,18.5A0.5,0.5 0 0 0 30,18.5A0.5,0.5 0 0 0 29,18.5zM30,18.5A0.5,0.5 0 0 0 31,18.5A0.5,0.5 0 0 0 30,18.5zM31,18.5A0.5,0.5 0 0 0 32,18.5A0.5,0.5 0 0 0 31,18.5zM32,18.5A0.5,0.5 0 0 0 33,18.5A0.5,0.5 0 0 0 32,18.5zM33,18.5A0.5,0.5 0 0 0 34,18.5A0.5,0.5 0 0 0 33,18.5zM35,18.5A0.5,0.5 0 0 0 36,18.5A0.5,0.5 0 0 0 35,18.5zM4,19.5A0.5,0.5 0 0 0 5,19.5A0.5,0.5 0 0 0 4,19.5zM5,19.5A0.5,0.5 0 0 0 6,19.5A0.5,0.5 0 0 0 5,19.5zM6,19.5A0.5,0.5 0 0 0 7,19.5A0.5,0.5 0 0 0 6,19.5zM8,19.5A0.5,0.5 0 0 0 9,19.5A0.5,0.5 0 0 0 8,19.5zM11,19.5A0.5,0.5 0 0 0 12,19.5A0.5,0.5 0 0 0 11,19.5zM13,19.5A0.5,0.5 0 0 0 14,19.5A0.5,0.5 0 0 0 13,19.5zM17,19.5A0.5,0.5 0 0 0 18,19.5A0.5,0.5 0 0 0 17,19.5zM18,19.5A0.5,0.5 0 0 0 19,19.5A0.5,0.5 0 0 0 18,19.5zM21,19.5A0.5,0.5 0 0 0 22,19.5A0.5,0.5 0 0 0 21,19.5zM22,19.5A0.5,0.5 0 0 0 23,19.5A0.5,0.5 0 0 0 22,19.5zM23,19.5A0.5,0.5 0 0 0 24,19.5A0.5,0.5 0 0 0 23,19.5zM24,19.5A0.5,0.5 0 0 0 25,19.5A0.5,0.5 0 0 0 24,19.5zM25,19.5A0.5,0.5 0 0 0 26,19.5A0.5,0.5 0 0 0 25,19.5zM26,19.5A0.5,0.5 0 0 0 27,19.5A0.5,0.5 0 0 0 26,19.5zM29,19.5A0.5,0.5 0 0 0 30,19.5A0.5,0.5 0 0 0 29,19.5zM30,19.5A0.5,0.5 0 0 0 31,19.5A0.5,0.5 0 0 0 30,19.5zM31,19.5A0.5,0.5 0 0 0 32,19.5A0.5,0.5 0 0 0 31,19.5zM34,19.5A0.5,0.5 0 0 0 35,19.5A0.5,0.5 0 0 0 34,19.5zM5,20.5A0.5,0.5 0 0 0 6,20.5A0.5,0.5 0 0 0 5,20.5zM8,20.5A0.5,0.5 0 0 0 9,20.5A0.5,0.5 0 0 0 8,20.5zM10,20.5A0.5,0.5 0 0 0 11,20.5A0.5,0.5 0 0 0 10,20.5zM13,20.5A0.5,0.5 0 0 0 14,20.5A0.5,0.5 0 0 0 13,20.5zM14,20.5A0.5,0.5 0 0 0 15,20.5A0.5,0.5 0 0 0 14,20.5zM19,20.5A0.5,0.5 0 0 0 20,20.5A0.5,0.5 0 0 0 19,20.5zM23,20.5A0.5,0.5 0 0 0 24,20.5A0.5,0.5 0 0 0 23,20.5zM24,20.5A0.5,0.5 0 0 0 25,20.5A0.5,0.5 0 0 0 24,20.5zM26,20.5A0.5,0.5 0 0 0 27,20.5A0.5,0.5 0 0 0 26,20.5zM27,20.5A0.5,0.5 0 0 0 28,20.5A0.5,0.5 0 0 0 27,20.5zM28,20.5A0.5,0.5 0 0 0 29,20.5A0.5,0.5 0 0 0 28,20.5zM29,20.5A0.5,0.5 0 0 0 30,20.5A0.5,0.5 0 0 0 29,20.5zM31,20.5A0.5,0.5 0 0 0 32,20.5A0.5,0.5 0 0 0 31,20.5zM32,20.5A0.5,0.5 0 0 0 33,20.5A0.5,0.5 0 0 0 32,20.5zM36,20.5A0.5,0.5 0 0 0 37,20.5A0.5,0.5 0 0 0 36,20.5zM4,21.5A0.5,0.5 0 0 0 5,21.5A0.5,0.5 0 0 0 4,21.5zM7,21.5A0.5,0.5 0 0 0 8,21.5A0.5,0.5 0 0 0 7,21.5zM11,21.5A0.5,0.5 0 0 0 12,21.5A0.5,0.5 0 0 0 11,21.5zM13,21.5A0.5,0.5 0 0 0 14,21.5A0.5,0.5 0 0 0 13,21.5zM14,21.5A0.5,0.5 0 0 0 15,21.5A0.5,0.5 0 0 0 14,21.5zM16,21.5A0.5,0.5 0 0 0 17,21.5A0.5,0.5 0 0 0 16,21.5zM19,21.5A0.5,0.5 0 0 0 20,21.5A0.5,0.5 0 0 0 19,21.5zM20,21.5A0.5,0.5 0 0 0 21,21.5A0.5,0.5 0 0 0 20,21.5zM22,21.5A0.5,0.5 0 0 0 23,21.5A0.5,0.5 0 0 0 22,21.5zM23,21.5A0.5,0.5 0 0 0 24,21.5A0.5,0.5 0 0 0 23,21.5zM24,21.5A0.5,0.5 0 0 0 25,21.5A0.5,0.5 0 0 0 24,21.5zM25,21.5A0.5,0.5 0 0 0 26,21.5A0.5,0.5 0 0 0 25,21.5zM27,21.5A0.5,0.5 0 0 0 28,21.5A0.5,0.5 0 0 0 27,21.5zM30,21.5A0.5,0.5 0 0 0 31,21.5A0.5,0.5 0 0 0 30,21.5zM31,21.5A0.5,0.5 0 0 0 32,21.5A0.5,0.5 0 0 0 31,21.5zM33,21.5A0.5,0.5 0 0 0 34,21.5A0.5,0.5 0 0 0 33,21.5zM34,21.5A0.5,0.5 0 0 0 35,21.5A0.5,0.5 0 0 0 34,21.5zM36,21.5A0.5,0.5 0 0 0 37,21.5A0.5,0.5 0 0 0 36,21.5zM4,22.5A0.5,0.5 0 0 0 5,22.5A0.5,0.5 0 0 0 4,22.5zM5,22.5A0.5,0.5 0 0 0 6,22.5A0.5,0.5 0 0 0 5,22.5zM6,22.5A0.5,0.5 0 0 0 7,22.5A0.5,0.5 0 0 0 6,22.5zM7,22.5A0.5,0.5 0 0 0 8,22.5A0.5,0.5 0 0 0 7,22.5zM8,22.5A0.5,0.5 0 0 0 9,22.5A0.5,0.5 0 0 0 8,22.5zM10,22.5A0.5,0.5 0 0 0 11,22.5A0.5,0.5 0 0 0 10,22.5zM11,22.5A0.5,0.5 0 0 0 12,22.5A0.5,0.5 0 0 0 11,22.5zM13,22.5A0.5,0.5 0 0 0 14,22.5A0.5,0.5 0 0 0 13,22.5zM16,22.5A0.5,0.5 0 0 0 17,22.5A0.5,0.5 0 0 0 16,22.5zM18,22.5A0.5,0.5 0 0 0 19,22.5A0.5,0.5 0 0 0 18,22.5zM19,22.5A0.5,0.5 0 0 0 20,22.5A0.5,0.5 0 0 0 19,22.5zM21,22.5A0.5,0.5 0 0 0 22,22.5A0.5,0.5 0 0 0 21,22.5zM22,22.5A0.5,0.5 0 0 0 23,22.5A0.5,0.5 0 0 0 22,22.5zM24,22.5A0.5,0.5 0 0 0 25,22.5A0.5,0.5 0 0 0 24,22.5zM28,22.5A0.5,0.5 0 0 0 29,22.5A0.5,0.5 0 0 0 28,22.5zM29,22.5A0.5,0.5 0 0 0 30,22.5A0.5,0.5 0 0 0 29,22.5zM30,22.5A0.5,0.5 0 0 0 31,22.5A0.5,0.5 0 0 0 30,22.5zM31,22.5A0.5,0.5 0 0 0 32,22.5A0.5,0.5 0 0 0 31,22.5zM32,22.5A0.5,0.5 0 0 0 33,22.5A0.5,0.5 0 0 0 32,22.5zM34,22.5A0.5,0.5 0 0 0 35,22.5A0.5,0.5 0 0 0 34,22.5zM35,22.5A0.5,0.5 0 0 0 36,22.5A0.5,0.5 0 0 0 35,22.5zM7,23.5A0.5,0.5 0 0 0 8,23.5A0.5,0.5 0 0 0 7,23.5zM8,23.5A0.5,0.5 0 0 0 9,23.5A0.5,0.5 0 0 0 8,23.5zM11,23.5A0.5,0.5 0 0 0 12,23.5A0.5,0.5 0 0 0 11,23.5zM12,23.5A0.5,0.5 0 0 0 13,23.5A0.5,0.5 0 0 0 12,23.5zM13,23.5A0.5,0.5 0 0 0 14,23.5A0.5,0.5 0 0 0 13,23.5zM14,23.5A0.5,0.5 0 0 0 15,23.5A0.5,0.5 0 0 0 14,23.5zM18,23.5A0.5,0.5 0 0 0 19,23.5A0.5,0.5 0 0 0 18,23.5zM20,23.5A0.5,0.5 0 0 0 21,23.5A0.5,0.5 0 0 0 20,23.5zM21,23.5A0.5,0.5 0 0 0 22,23.5A0.5,0.5 0 0 0 21,23.5zM22,23.5A0.5,0.5 0 0 0 23,23.5A0.5,0.5 0 0 0 22,23.5zM24,23.5A0.5,0.5 0 0 0 25,23.5A0.5,0.5 0 0 0 24,23.5zM25,23.5A0.5,0.5 0 0 0 26,23.5A0.5,0.5 0 0 0 25,23.5zM26,23.5A0.5,0.5 0 0 0 27,23.5A0.5,0.5 0 0 0 26,23.5zM27,23.5A0.5,0.5 0 0 0 28,23.5A0.5,0.5 0 0 0 27,23.5zM29,23.5A0.5,0.5 0 0 0 30,23.5A0.5,0.5 0 0 0 29,23.5zM31,23.5A0.5,0.5 0 0 0 32,23.5A0.5,0.5 0 0 0 31,23.5zM32,23.5A0.5,0.5 0 0 0 33,23.5A0.5,0.5 0 0 0 32,23.5zM33,23.5A0.5,0.5 0 0 0 34,23.5A0.5,0.5 0 0 0 33,23.5zM34,23.5A0.5,0.5 0 0 0 35,23.5A0.5,0.5 0 0 0 34,23.5zM6,24.5A0.5,0.5 0 0 0 7,24.5A0.5,0.5 0 0 0 6,24.5zM10,24.5A0.5,0.5 0 0 0 11,24.5A0.5,0.5 0 0 0 10,24.5zM12,24.5A0.5,0.5 0 0 0 13,24.5A0.5,0.5 0 0 0 12,24.5zM13,24.5A0.5,0.5 0 0 0 14,24.5A0.5,0.5 0 0 0 13,24.5zM15,24.5A0.5,0.5 0 0 0 16,24.5A0.5,0.5 0 0 0 15,24.5zM16,24.5A0.5,0.5 0 0 0 17,24.5A0.5,0.5 0 0 0 16,24.5zM18,24.5A0.5,0.5 0 0 0 19,24.5A0.5,0.5 0 0 0 18,24.5zM20,24.5A0.5,0.5 0 0 0 21,24.5A0.5,0.5 0 0 0 20,24.5zM26,24.5A0.5,0.5 0 0 0 27,24.5A0.5,0.5 0 0 0 26,24.5zM28,24.5A0.5,0.5 0 0 0 29,24.5A0.5,0.5 0 0 0 28,24.5zM32,24.5A0.5,0.5 0 0 0 33,24.5A0.5,0.5 0 0 0 32,24.5zM33,24.5A0.5,0.5 0 0 0 34,24.5A0.5,0.5 0 0 0 33,24.5zM35,24.5A0.5,0.5 0 0 0 36,24.5A0.5,0.5 0 0 0 35,24.5zM36,24.5A0.5,0.5 0 0 0 37,24.5A0.5,0.5 0 0 0 36,24.5zM4,25.5A0.5,0.5 0 0 0 5,25.5A0.5,0.5 0 0 0 4,25.5zM6,25.5A0.5,0.5 0 0 0 7,25.5A0.5,0.5 0 0 0 6,25.5zM7,25.5A0.5,0.5 0 0 0 8,25.5A0.5,0.5 0 0 0 7,25.5zM8,25.5A0.5,0.5 0 0 0 9,25.5A0.5,0.5 0 0 0 8,25.5zM11,25.5A0.5,0.5 0 0 0 12,25.5A0.5,0.5 0 0 0 11,25.5zM12,25.5A0.5,0.5 0 0 0 13,25.5A0.5,0.5 0 0 0 12,25.5zM13,25.5A0.5,0.5 0 0 0 14,25.5A0.5,0.5 0 0 0 13,25.5zM14,25.5A0.5,0.5 0 0 0 15,25.5A0.5,0.5 0 0 0 14,25.5zM16,25.5A0.5,0.5 0 0 0 17,25.5A0.5,0.5 0 0 0 16,25.5zM18,25.5A0.5,0.5 0 0 0 19,25.5A0.5,0.5 0 0 0 18,25.5zM21,25.5A0.5,0.5 0 0 0 22,25.5A0.5,0.5 0 0 0 21,25.5zM22,25.5A0.5,0.5 0 0 0 23,25.5A0.5,0.5 0 0 0 22,25.5zM27,25.5A0.5,0.5 0 0 0 28,25.5A0.5,0.5 0 0 0 27,25.5zM28,25.5A0.5,0.5 0 0 0 29,25.5A0.5,0.5 0 0 0 28,25.5zM29,25.5A0.5,0.5 0 0 0 30,25.5A0.5,0.5 0 0 0 29,25.5zM30,25.5A0.5,0.5 0 0 0 31,25.5A0.5,0.5 0 0 0 30,25.5zM31,25.5A0.5,0.5 0 0 0 32,25.5A0.5,0.5 0 0 0 31,25.5zM33,25.5A0.5,0.5 0 0 0 34,25.5A0.5,0.5 0 0 0 33,25.5zM36,25.5A0.5,0.5 0 0 0 37,25.5A0.5,0.5 0 0 0 36,25.5zM4,26.5A0.5,0.5 0 0 0 5,26.5A0.5,0.5 0 0 0 4,26.5zM7,26.5A0.5,0.5 0 0 0 8,26.5A0.5,0.5 0 0 0 7,26.5zM8,26.5A0.5,0.5 0 0 0 9,26.5A0.5,0.5 0 0 0 8,26.5zM9,26.5A0.5,0.5 0 0 0 10,26.5A0.5,0.5 0 0 0 9,26.5zM10,26.5A0.5,0.5 0 0 0 11,26.5A0.5,0.5 0 0 0 10,26.5zM12,26.5A0.5,0.5 0 0 0 13,26.5A0.5,0.5 0 0 0 12,26.5zM13,26.5A0.5,0.5 0 0 0 14,26.5A0.5,0.5 0 0 0 13,26.5zM14,26.5A0.5,0.5 0 0 0 15,26.5A0.5,0.5 0 0 0 14,26.5zM15,26.5A0.5,0.5 0 0 0 16,26.5A0.5,0.5 0 0 0 15,26.5zM16,26.5A0.5,0.5 0 0 0 17,26.5A0.5,0.5 0 0 0 16,26.5zM19,26.5A0.5,0.5 0 0 0 20,26.5A0.5,0.5 0 0 0 19,26.5zM20,26.5A0.5,0.5 0 0 0 21,26.5A0.5,0.5 0 0 0 20,26.5zM21,26.5A0.5,0.5 0 0 0 22,26.5A0.5,0.5 0 0 0 21,26.5zM24,26.5A0.5,0.5 0 0 0 25,26.5A0.5,0.5 0 0 0 24,26.5zM28,26.5A0.5,0.5 0 0 0 29,26.5A0.5,0.5 0 0 0 28,26.5zM30,26.5A0.5,0.5 0 0 0 31,26.5A0.5,0.5 0 0 0 30,26.5zM31,26.5A0.5,0.5 0 0 0 32,26.5A0.5,0.5 0 0 0 31,26.5zM33,26.5A0.5,0.5 0 0 0 34,26.5A0.5,0.5 0 0 0 33,26.5zM35,26.5A0.5,0.5 0 0 0 36,26.5A0.5,0.5 0 0 0 35,26.5zM4,27.5A0.5,0.5 0 0 0 5,27.5A0.5,0.5 0 0 0 4,27.5zM6,27.5A0.5,0.5 0 0 0 7,27.5A0.5,0.5 0 0 0 6,27.5zM9,27.5A0.5,0.5 0 0 0 10,27.5A0.5,0.5 0 0 0 9,27.5zM11,27.5A0.5,0.5 0 0 0 12,27.5A0.5,0.5 0 0 0 11,27.5zM13,27.5A0.5,0.5 0 0 0 14,27.5A0.5,0.5 0 0 0 13,27.5zM14,27.5A0.5,0.5 0 0 0 15,27.5A0.5,0.5 0 0 0 14,27.5zM16,27.5A0.5,0.5 0 0 0 17,27.5A0.5,0.5 0 0 0 16,27.5zM17,27.5A0.5,0.5 0 0 0 18,27.5A0.5,0.5 0 0 0 17,27.5zM18,27.5A0.5,0.5 0 0 0 19,27.5A0.5,0.5 0 0 0 18,27.5zM20,27.5A0.5,0.5 0 0 0 21,27.5A0.5,0.5 0 0 0 20,27.5zM24,27.5A0.5,0.5 0 0 0 25,27.5A0.5,0.5 0 0 0 24,27.5zM25,27.5A0.5,0.5 0 0 0 26,27.5A0.5,0.5 0 0 0 25,27.5zM26,27.5A0.5,0.5 0 0 0 27,27.5A0.5,0.5 0 0 0 26,27.5zM27,27.5A0.5,0.5 0 0 0 28,27.5A0.5,0.5 0 0 0 27,27.5zM29,27.5A0.5,0.5 0 0 0 30,27.5A0.5,0.5 0 0 0 29,27.5zM30,27.5A0.5,0.5 0 0 0 31,27.5A0.5,0.5 0 0 0 30,27.5zM31,27.5A0.5,0.5 0 0 0 32,27.5A0.5,0.5 0 0 0 31,27.5zM34,27.5A0.5,0.5 0 0 0 35,27.5A0.5,0.5 0 0 0 34,27.5zM36,27.5A0.5,0.5 0 0 0 37,27.5A0.5,0.5 0 0 0 36,27.5zM4,28.5A0.5,0.5 0 0 0 5,28.5A0.5,0.5 0 0 0 4,28.5zM10,28.5A0.5,0.5 0 0 0 11,28.5A0.5,0.5 0 0 0 10,28.5zM11,28.5A0.5,0.5 0 0 0 12,28.5A0.5,0.5 0 0 0 11,28.5zM13,28.5A0.5,0.5 0 0 0 14,28.5A0.5,0.5 0 0 0 13,28.5zM15,28.5A0.5,0.5 0 0 0 16,28.5A0.5,0.5 0 0 0 15,28.5zM18,28.5A0.5,0.5 0 0 0 19,28.5A0.5,0.5 0 0 0 18,28.5zM21,28.5A0.5,0.5 0 0 0 22,28.5A0.5,0.5 0 0 0 21,28.5zM28,28.5A0.5,0.5 0 0 0 29,28.5A0.5,0.5 0 0 0 28,28.5zM29,28.5A0.5,0.5 0 0 0 30,28.5A0.5,0.5 0 0 0 29,28.5zM30,28.5A0.5,0.5 0 0 0 31,28.5A0.5,0.5 0 0 0 30,28.5zM31,28.5A0.5,0.5 0 0 0 32,28.5A0.5,0.5 0 0 0 31,28.5zM32,28.5A0.5,0.5 0 0 0 33,28.5A0.5,0.5 0 0 0 32,28.5zM33,28.5A0.5,0.5 0 0 0 34,28.5A0.5,0.5 0 0 0 33,28.5zM36,28.5A0.5,0.5 0 0 0 37,28.5A0.5,0.5 0 0 0 36,28.5zM12,29.5A0.5,0.5 0 0 0 13,29.5A0.5,0.5 0 0 0 12,29.5zM13,29.5A0.5,0.5 0 0 0 14,29.5A0.5,0.5 0 0 0 13,29.5zM14,29.5A0.5,0.5 0 0 0 15,29.5A0.5,0.5 0 0 0 14,29.5zM17,29.5A0.5,0.5 0 0 0 18,29.5A0.5,0.5 0 0 0 17,29.5zM19,29.5A0.5,0.5 0 0 0 20,29.5A0.5,0.5 0 0 0 19,29.5zM20,29.5A0.5,0.5 0 0 0 21,29.5A0.5,0.5 0 0 0 20,29.5zM22,29.5A0.5,0.5 0 0 0 23,29.5A0.5,0.5 0 0 0 22,29.5zM23,29.5A0.5,0.5 0 0 0 24,29.5A0.5,0.5 0 0 0 23,29.5zM24,29.5A0.5,0.5 0 0 0 25,29.5A0.5,0.5 0 0 0 24,29.5zM25,29.5A0.5,0.5 0 0 0 26,29.5A0.5,0.5 0 0 0 25,29.5zM28,29.5A0.5,0.5 0 0 0 29,29.5A0.5,0.5 0 0 0 28,29.5zM32,29.5A0.5,0.5 0 0 0 33,29.5A0.5,0.5 0 0 0 32,29.5zM34,29.5A0.5,0.5 0 0 0 35,29.5A0.5,0.5 0 0 0 34,29.5zM36,29.5A0.5,0.5 0 0 0 37,29.5A0.5,0.5 0 0 0 36,29.5zM4,30H5V31H4zM5,30H6V31H5zM6,30H7V31H6zM7,30H8V31H7zM8,30H9V31H8zM9,30H10V31H9zM10,30H11V31H10zM12,30.5A0.5,0.5 0 0 0 13,30.5A0.5,0.5 0 0 0 12,30.5zM14,30.5A0.5,0.5 0 0 0 15,30.5A0.5,0.5 0 0 0 14,30.5zM15,30.5A0.5,0.5 0 0 0 16,30.5A0.5,0.5 0 0 0 15,30.5zM17,30.5A0.5,0.5 0 0 0 18,30.5A0.5,0.5 0 0 0 17,30.5zM19,30.5A0.5,0.5 0 0 0 20,30.5A0.5,0.5 0 0 0 19,30.5zM20,30.5A0.5,0.5 0 0 0 21,30.5A0.5,0.5 0 0 0 20,30.5zM25,30.5A0.5,0.5 0 0 0 26,30.5A0.5,0.5 0 0 0 25,30.5zM27,30.5A0.5,0.5 0 0 0 28,30.5A0.5,0.5 0 0 0 27,30.5zM28,30.5A0.5,0.5 0 0 0 29,30.5A0.5,0.5 0 0 0 28,30.5zM30,30.5A0.5,0.5 0 0 0 31,30.5A0.5,0.5 0 0 0 30,30.5zM32,30.5A0.5,0.5 0 0 0 33,30.5A0.5,0.5 0 0 0 32,30.5zM34,30.5A0.5,0.5 0 0 0 35,30.5A0.5,0.5 0 0 0 34,30.5zM35,30.5A0.5,0.5 0 0 0 36,30.5A0.5,0.5 0 0 0 35,30.5zM4,31H5V32H4zM10,31H11V32H10zM12,31.5A0.5,0.5 0 0 0 13,31.5A0.5,0.5 0 0 0 12,31.5zM13,31.5A0.5,0.5 0 0 0 14,31.5A0.5,0.5 0 0 0 13,31.5zM15,31.5A0.5,0.5 0 0 0 16,31.5A0.5,0.5 0 0 0 15,31.5zM16,31.5A0.5,0.5 0 0 0 17,31.5A0.5,0.5 0 0 0 16,31.5zM17,31.5A0.5,0.5 0 0 0 18,31.5A0.5,0.5 0 0 0 17,31.5zM18,31.5A0.5,0.5 0 0 0 19,31.5A0.5,0.5 0 0 0 18,31.5zM20,31.5A0.5,0.5 0 0 0 21,31.5A0.5,0.5 0 0 0 20,31.5zM22,31.5A0.5,0.5 0 0 0 23,31.5A0.5,0.5 0 0 0 22,31.5zM23,31.5A0.5,0.5 0 0 0 24,31.5A0.5,0.5 0 0 0 23,31.5zM24,31.5A0.5,0.5 0 0 0 25,31.5A0.5,0.5 0 0 0 24,31.5zM25,31.5A0.5,0.5 0 0 0 26,31.5A0.5,0.5 0 0 0 25,31.5zM26,31.5A0.5,0.5 0 0 0 27,31.5A0.5,0.5 0 0 0 26,31.5zM27,31.5A0.5,0.5 0 0 0 28,31.5A0.5,0.5 0 0 0 27,31.5zM28,31.5A0.5,0.5 0 0 0 29,31.5A0.5,0.5 0 0 0 28,31.5zM32,31.5A0.5,0.5 0 0 0 33,31.5A0.5,0.5 0 0 0 32,31.5zM33,31.5A0.5,0.5 0 0 0 34,31.5A0.5,0.5 0 0 0 33,31.5zM34,31.5A0.5,0.5 0 0 0 35,31.5A0.5,0.5 0 0 0 34,31.5zM35,31.5A0.5,0.5 0 0 0 36,31.5A0.5,0.5 0 0 0 35,31.5zM4,32H5V33H4zM6,32H7V33H6zM7,32H8V33H7zM8,32H9V33H8zM10,32H11V33H10zM12,32.5A0.5,0.5 0 0 0 13,32.5A0.5,0.5 0 0 0 12,32.5zM20,32.5A0.5,0.5 0 0 0 21,32.5A0.5,0.5 0 0 0 20,32.5zM23,32.5A0.5,0.5 0 0 0 24,32.5A0.5,0.5 0 0 0 23,32.5zM26,32.5A0.5,0.5 0 0 0 27,32.5A0.5,0.5 0 0 0 26,32.5zM28,32.5A0.5,0.5 0 0 0 29,32.5A0.5,0.5 0 0 0 28,32.5zM29,32.5A0.5,0.5 0 0 0 30,32.5A0.5,0.5 0 0 0 29,32.5zM30,32.5A0.5,0.5 0 0 0 31,32.5A0.5,0.5 0 0 0 30,32.5zM31,32.5A0.5,0.5 0 0 0 32,32.5A0.5,0.5 0 0 0 31,32.5zM32,32.5A0.5,0.5 0 0 0 33,32.5A0.5,0.5 0 0 0 32,32.5zM33,32.5A0.5,0.5 0 0 0 34,32.5A0.5,0.5 0 0 0 33,32.5zM4,33H5V34H4zM6,33H7V34H6zM7,33H8V34H7zM8,33H9V34H8zM10,33H11V34H10zM12,33.5A0.5,0.5 0 0 0 13,33.5A0.5,0.5 0 0 0 12,33.5zM15,33.5A0.5,0.5 0 0 0 16,33.5A0.5,0.5 0 0 0 15,33.5zM17,33.5A0.5,0.5 0 0 0 18,33.5A0.5,0.5 0 0 0 17,33.5zM18,33.5A0.5,0.5 0 0 0 19,33.5A0.5,0.5 0 0 0 18,33.5zM19,33.5A0.5,0.5 0 0 0 20,33.5A0.5,0.5 0 0 0 19,33.5zM20,33.5A0.5,0.5 0 0 0 21,33.5A0.5,0.5 0 0 0 20,33.5zM21,33.5A0.5,0.5 0 0 0 22,33.5A0.5,0.5 0 0 0 21,33.5zM22,33.5A0.5,0.5 0 0 0 23,33.5A0.5,0.5 0 0 0 22,33.5zM23,33.5A0.5,0.5 0 0 0 24,33.5A0.5,0.5 0 0 0 23,33.5zM24,33.5A0.5,0.5 0 0 0 25,33.5A0.5,0.5 0 0 0 24,33.5zM26,33.5A0.5,0.5 0 0 0 27,33.5A0.5,0.5 0 0 0 26,33.5zM27,33.5A0.5,0.5 0 0 0 28,33.5A0.5,0.5 0 0 0 27,33.5zM28,33.5A0.5,0.5 0 0 0 29,33.5A0.5,0.5 0 0 0 28,33.5zM32,33.5A0.5,0.5 0 0 0 33,33.5A0.5,0.5 0 0 0 32,33.5zM34,33.5A0.5,0.5 0 0 0 35,33.5A0.5,0.5 0 0 0 34,33.5zM36,33.5A0.5,0.5 0 0 0 37,33.5A0.5,0.5 0 0 0 36,33.5zM4,34H5V35H4zM6,34H7V35H6zM7,34H8V35H7zM8,34H9V35H8zM10,34H11V35H10zM12,34.5A0.5,0.5 0 0 0 13,34.5A0.5,0.5 0 0 0 12,34.5zM13,34.5A0.5,0.5 0 0 0 14,34.5A0.5,0.5 0 0 0 13,34.5zM14,34.5A0.5,0.5 0 0 0 15,34.5A0.5,0.5 0 0 0 14,34.5zM17,34.5A0.5,0.5 0 0 0 18,34.5A0.5,0.5 0 0 0 17,34.5zM19,34.5A0.5,0.5 0 0 0 20,34.5A0.5,0.5 0 0 0 19,34.5zM21,34.5A0.5,0.5 0 0 0 22,34.5A0.5,0.5 0 0 0 21,34.5zM26,34.5A0.5,0.5 0 0 0 27,34.5A0.5,0.5 0 0 0 26,34.5zM27,34.5A0.5,0.5 0 0 0 28,34.5A0.5,0.5 0 0 0 27,34.5zM30,34.5A0.5,0.5 0 0 0 31,34.5A0.5,0.5 0 0 0 30,34.5zM31,34.5A0.5,0.5 0 0 0 32,34.5A0.5,0.5 0 0 0 31,34.5zM4,35H5V36H4zM10,35H11V36H10zM12,35.5A0.5,0.5 0 0 0 13,35.5A0.5,0.5 0 0 0 12,35.5zM15,35.5A0.5,0.5 0 0 0 16,35.5A0.5,0.5 0 0 0 15,35.5zM19,35.5A0.5,0.5 0 0 0 20,35.5A0.5,0.5 0 0 0 19,35.5zM20,35.5A0.5,0.5 0 0 0 21,35.5A0.5,0.5 0 0 0 20,35.5zM21,35.5A0.5,0.5 0 0 0 22,35.5A0.5,0.5 0 0 0 21,35.5zM25,35.5A0.5,0.5 0 0 0 26,35.5A0.5,0.5 0 0 0 25,35.5zM27,35.5A0.5,0.5 0 0 0 28,35.5A0.5,0.5 0 0 0 27,35.5zM32,35.5A0.5,0.5 0 0 0 33,35.5A0.5,0.5 0 0 0 32,35.5zM34,35.5A0.5,0.5 0 0 0 35,35.5A0.5,0.5 0 0 0 34,35.5zM4,36H5V37H4zM5,36H6V37H5zM6,36H7V37H6zM7,36H8V37H7zM8,36H9V37H8zM9,36H10V37H9zM10,36H11V37H10zM13,36.5A0.5,0.5 0 0 0 14,36.5A0.5,0.5 0 0 0 13,36.5zM14,36.5A0.5,0.5 0 0 0 15,36.5A0.5,0.5 0 0 0 14,36.5zM15,36.5A0.5,0.5 0 0 0 16,36.5A0.5,0.5 0 0 0 15,36.5zM16,36.5A0.5,0.5 0 0 0 17,36.5A0.5,0.5 0 0 0 16,36.5zM19,36.5A0.5,0.5 0 0 0 20,36.5A0.5,0.5 0 0 0 19,36.5zM20,36.5A0.5,0.5 0 0 0 21,36.5A0.5,0.5 0 0 0 20,36.5zM22,36.5A0.5,0.5 0 0 0 23,36.5A0.5,0.5 0 0 0 22,36.5zM26,36.5A0.5,0.5 0 0 0 27,36.5A0.5,0.5 0 0 0 26,36.5zM28,36.5A0.5,0.5 0 0 0 29,36.5A0.5,0.5 0 0 0 28,36.5zM31,36.5A0.5,0.5 0 0 0 32,36.5A0.5,0.5 0 0 0 31,36.5zM33,36.5A0.5,0.5 0 0 0 34,36.5A0.5,0.5 0 0 0 33,36.5zM35,36.5A0.5,0.5 0 0 0 36,36.5A0.5,0.5 0 0 0 35,36.5z" id="qr-path" fill="#2a76dd" fill-opacity="1" fill-rule="nonzero" stroke="none"/></svg>