<svg id="Layer_1" data-name="Layer 1" xmlns="http://www.w3.org/2000/svg" viewBox="0 0 450 450"><defs><style>.cls-1{fill:none;stroke:#000;stroke-miterlimit:10;stroke-width:2px;}.cls-2{fill:#fff;}.cls-3,.cls-4{fill:#d4145a;}.cls-4{fill-rule:evenodd;}</style></defs><title>sc2-tree</title><line class="cls-1" x1="54.5" y1="237" x2="169.5" y2="138"/><line class="cls-1" x1="61.5" y1="275" x2="158.5" y2="315"/><line class="cls-1" x1="169.5" y1="138" x2="227.5" y2="34"/><line class="cls-1" x1="169.5" y1="138" x2="285.5" y2="171"/><line class="cls-1" x1="162.5" y1="312" x2="199.5" y2="280"/><line class="cls-1" x1="158.5" y1="315" x2="279.5" y2="325"/><line class="cls-1" x1="158.5" y1="315" x2="216.5" y2="365"/><line class="cls-1" x1="285.5" y1="171" x2="371.5" y2="87"/><line class="cls-1" x1="285.5" y1="171" x2="406.5" y2="168"/><line class="cls-1" x1="270.5" y1="386" x2="321.5" y2="418"/><line class="cls-1" x1="279.5" y1="325" x2="344.5" y2="224"/><line class="cls-1" x1="279.5" y1="325" x2="394.5" y2="291"/><line class="cls-1" x1="279.5" y1="325" x2="388.5" y2="376"/><circle class="cls-2" cx="322" cy="418.49" r="26.5"/><rect class="cls-3" x="321.05" y="397.08" width="1.92" height="5.98"/><path class="cls-4" d="M323.09,397.08h-2.25a1.43,1.43,0,0,1-1.42-1.43V393.4a1.43,1.43,0,0,1,1.42-1.42h2.25a1.43,1.43,0,0,1,1.43,1.42v2.25a1.43,1.43,0,0,1-1.43,1.43"/><rect class="cls-3" x="337.36" y="417.45" width="5.98" height="1.92"/><path class="cls-4" d="M343.34,419.5v-2.25a1.43,1.43,0,0,1,1.42-1.42H347a1.43,1.43,0,0,1,1.43,1.42v2.25a1.43,1.43,0,0,1-1.43,1.42h-2.25a1.43,1.43,0,0,1-1.42-1.42"/><rect class="cls-3" x="321.05" y="433.92" width="1.92" height="5.98"/><path class="cls-4" d="M320.92,439.9h2.25a1.43,1.43,0,0,1,1.42,1.42v2.25a1.43,1.43,0,0,1-1.42,1.42h-2.25a1.43,1.43,0,0,1-1.43-1.42v-2.25a1.43,1.43,0,0,1,1.43-1.42"/><rect class="cls-3" x="300.59" y="417.38" width="5.98" height="1.92"/><path class="cls-4" d="M300.59,417.25v2.25a1.43,1.43,0,0,1-1.42,1.42h-2.25a1.43,1.43,0,0,1-1.42-1.42v-2.25a1.43,1.43,0,0,1,1.42-1.42h2.25a1.43,1.43,0,0,1,1.42,1.42"/><rect class="cls-3" x="308.27" y="402.2" width="1.92" height="5.98" transform="translate(-195.94 337.34) rotate(-45)"/><path class="cls-4" d="M307.88,402.31l-1.59,1.59a1.43,1.43,0,0,1-2,0l-1.59-1.59a1.41,1.41,0,0,1,0-2l1.59-1.6a1.43,1.43,0,0,1,2,0l1.59,1.6a1.43,1.43,0,0,1,0,2"/><rect class="cls-3" x="332.24" y="404.68" width="5.98" height="1.92" transform="translate(-188.64 355.85) rotate(-45)"/><path class="cls-4" d="M338.11,404.29l-1.59-1.59a1.43,1.43,0,0,1,0-2l1.59-1.59a1.43,1.43,0,0,1,2,0l1.59,1.59a1.41,1.41,0,0,1,0,2l-1.59,1.59a1.41,1.41,0,0,1-2,0"/><rect class="cls-3" x="334.09" y="428.25" width="1.92" height="5.98" transform="translate(-206.8 363.23) rotate(-45)"/><path class="cls-4" d="M336.4,434.13l1.59-1.59a1.41,1.41,0,0,1,2,0l1.59,1.59a1.43,1.43,0,0,1,0,2L340,437.73a1.43,1.43,0,0,1-2,0l-1.59-1.59a1.43,1.43,0,0,1,0-2"/><rect class="cls-3" x="306.16" y="430.63" width="5.98" height="1.92" transform="translate(-214.63 345.01) rotate(-45)"/><path class="cls-4" d="M306.27,432.93l1.59,1.59a1.43,1.43,0,0,1,0,2l-1.59,1.59a1.41,1.41,0,0,1-2,0l-1.59-1.59a1.41,1.41,0,0,1,0-2l1.59-1.59a1.43,1.43,0,0,1,2,0"/><path d="M322,403.06a15.26,15.26,0,1,1-6,1.2,15.18,15.18,0,0,1,6-1.2m0-2.51a17.83,17.83,0,1,0,17.83,17.83A17.83,17.83,0,0,0,322,400.55"/><path d="M326.36,430.64l-.44-1.56c4.63-1.34,6.51-4.24,6.72-6.51a2.52,2.52,0,0,0-1-2.55c-2.2-1.09-4-1.21-6.58,1.47a8.3,8.3,0,0,1-6.84,2.11,8.08,8.08,0,0,1-6.11-3.89c-1.1-1.89-.75-3.22-.26-4,1.44-2.29,5.86-2.8,9.22-2.54a3.72,3.72,0,0,0,3.29-1.74,3.55,3.55,0,0,0,.55-3.34,2.22,2.22,0,0,0-2-1.12,9.74,9.74,0,0,0-7.81,3.17l-1.26-1a11.26,11.26,0,0,1,9.18-3.77,3.83,3.83,0,0,1,3.39,2,5.13,5.13,0,0,1-.67,5,5.28,5.28,0,0,1-4.76,2.44c-3.64-.28-6.89.47-7.71,1.78-.14.22-.56.88.28,2.32a6.47,6.47,0,0,0,4.91,3.1,6.67,6.67,0,0,0,5.47-1.63,8,8,0,0,1,4.23-2.6,6.64,6.64,0,0,1,4.25.81,4,4,0,0,1,1.84,4.15,7.9,7.9,0,0,1-2.08,4.5,12.12,12.12,0,0,1-5.81,3.42"/><circle class="cls-2" cx="228" cy="34.49" r="26.5"/><rect class="cls-3" x="227.05" y="13.08" width="1.92" height="5.98"/><path class="cls-4" d="M229.09,13.08h-2.25a1.43,1.43,0,0,1-1.42-1.43V9.4A1.43,1.43,0,0,1,226.84,8h2.25a1.43,1.43,0,0,1,1.43,1.42v2.25a1.43,1.43,0,0,1-1.43,1.43"/><rect class="cls-3" x="243.36" y="33.45" width="5.98" height="1.92"/><path class="cls-4" d="M249.34,35.5V33.25a1.43,1.43,0,0,1,1.42-1.42H253a1.43,1.43,0,0,1,1.43,1.42V35.5A1.43,1.43,0,0,1,253,36.92h-2.25a1.43,1.43,0,0,1-1.42-1.42"/><rect class="cls-3" x="227.05" y="49.92" width="1.92" height="5.98"/><path class="cls-4" d="M226.92,55.9h2.25a1.43,1.43,0,0,1,1.42,1.42v2.25A1.43,1.43,0,0,1,229.17,61h-2.25a1.43,1.43,0,0,1-1.43-1.42V57.32a1.43,1.43,0,0,1,1.43-1.42"/><rect class="cls-3" x="206.59" y="33.38" width="5.98" height="1.92"/><path class="cls-4" d="M206.59,33.25V35.5a1.43,1.43,0,0,1-1.42,1.42h-2.25a1.43,1.43,0,0,1-1.42-1.42V33.25a1.43,1.43,0,0,1,1.42-1.42h2.25a1.43,1.43,0,0,1,1.42,1.42"/><rect class="cls-3" x="214.27" y="18.2" width="1.92" height="5.98" transform="translate(48.06 158.4) rotate(-45)"/><path class="cls-4" d="M213.88,18.31l-1.59,1.59a1.43,1.43,0,0,1-2,0l-1.59-1.59a1.41,1.41,0,0,1,0-2l1.59-1.6a1.43,1.43,0,0,1,2,0l1.59,1.6a1.43,1.43,0,0,1,0,2"/><rect class="cls-3" x="238.24" y="20.68" width="5.98" height="1.92" transform="translate(55.35 176.91) rotate(-45)"/><path class="cls-4" d="M244.11,20.29l-1.59-1.59a1.43,1.43,0,0,1,0-2l1.59-1.59a1.43,1.43,0,0,1,2,0l1.59,1.59a1.41,1.41,0,0,1,0,2l-1.59,1.59a1.41,1.41,0,0,1-2,0"/><rect class="cls-3" x="240.09" y="44.25" width="1.92" height="5.98" transform="translate(37.2 184.29) rotate(-45)"/><path class="cls-4" d="M242.4,50.13,244,48.54a1.41,1.41,0,0,1,2,0l1.59,1.59a1.43,1.43,0,0,1,0,2L246,53.73a1.43,1.43,0,0,1-2,0l-1.59-1.59a1.43,1.43,0,0,1,0-2"/><rect class="cls-3" x="212.16" y="46.63" width="5.98" height="1.92" transform="translate(29.37 166.07) rotate(-45)"/><path class="cls-4" d="M212.27,48.93l1.59,1.59a1.43,1.43,0,0,1,0,2l-1.59,1.59a1.41,1.41,0,0,1-2,0l-1.59-1.59a1.41,1.41,0,0,1,0-2l1.59-1.59a1.43,1.43,0,0,1,2,0"/><path d="M228,19.06a15.32,15.32,0,1,1-6,29.43,15,15,0,0,1-4.87-3.28,15.29,15.29,0,0,1,0-21.67A15.26,15.26,0,0,1,228,19.06m0-2.51A17.83,17.83,0,1,0,245.8,34.38,17.83,17.83,0,0,0,228,16.55"/><path d="M232.36,46.64l-.44-1.56c4.63-1.34,6.51-4.24,6.72-6.51a2.52,2.52,0,0,0-1-2.55c-2.2-1.09-4-1.21-6.58,1.47a8.3,8.3,0,0,1-6.84,2.11,8.08,8.08,0,0,1-6.11-3.89c-1.1-1.89-.75-3.22-.26-4,1.44-2.29,5.86-2.8,9.22-2.54a3.72,3.72,0,0,0,3.29-1.74,3.55,3.55,0,0,0,.55-3.34,2.22,2.22,0,0,0-2-1.12,9.74,9.74,0,0,0-7.81,3.17l-1.26-1A11.26,11.26,0,0,1,229,21.35a3.83,3.83,0,0,1,3.39,2,5.13,5.13,0,0,1-.67,5A5.28,5.28,0,0,1,227,30.79c-3.64-.28-6.89.47-7.71,1.78-.14.22-.56.88.28,2.32a6.47,6.47,0,0,0,4.91,3.1,6.67,6.67,0,0,0,5.47-1.63,8,8,0,0,1,4.23-2.6,6.64,6.64,0,0,1,4.25.81,4,4,0,0,1,1.84,4.15,7.9,7.9,0,0,1-2.08,4.5,12.12,12.12,0,0,1-5.81,3.42"/><circle class="cls-2" cx="407" cy="168.49" r="26.5"/><rect class="cls-3" x="406.05" y="147.08" width="1.92" height="5.98"/><path class="cls-4" d="M408.09,147.08h-2.25a1.43,1.43,0,0,1-1.42-1.43V143.4a1.43,1.43,0,0,1,1.42-1.42h2.25a1.43,1.43,0,0,1,1.43,1.42v2.25a1.43,1.43,0,0,1-1.43,1.43"/><rect class="cls-3" x="422.36" y="167.45" width="5.98" height="1.92"/><path class="cls-4" d="M428.34,169.5v-2.25a1.43,1.43,0,0,1,1.42-1.42H432a1.43,1.43,0,0,1,1.43,1.42v2.25a1.43,1.43,0,0,1-1.43,1.42h-2.25a1.43,1.43,0,0,1-1.42-1.42"/><rect class="cls-3" x="406.05" y="183.92" width="1.92" height="5.98"/><path class="cls-4" d="M405.92,189.9h2.25a1.43,1.43,0,0,1,1.42,1.42v2.25a1.43,1.43,0,0,1-1.42,1.42h-2.25a1.43,1.43,0,0,1-1.43-1.42v-2.25a1.43,1.43,0,0,1,1.43-1.42"/><rect class="cls-3" x="385.59" y="167.38" width="5.98" height="1.92"/><path class="cls-4" d="M385.59,167.25v2.25a1.43,1.43,0,0,1-1.42,1.42h-2.25a1.43,1.43,0,0,1-1.42-1.42v-2.25a1.43,1.43,0,0,1,1.42-1.42h2.25a1.43,1.43,0,0,1,1.42,1.42"/><rect class="cls-3" x="393.27" y="152.2" width="1.92" height="5.98" transform="translate(5.73 324.22) rotate(-45)"/><path class="cls-4" d="M392.88,152.31l-1.59,1.59a1.43,1.43,0,0,1-2,0l-1.59-1.59a1.41,1.41,0,0,1,0-2l1.59-1.6a1.43,1.43,0,0,1,2,0l1.59,1.6a1.43,1.43,0,0,1,0,2"/><rect class="cls-3" x="417.24" y="154.68" width="5.98" height="1.92" transform="translate(13.03 342.73) rotate(-45)"/><path class="cls-4" d="M423.11,154.29l-1.59-1.59a1.43,1.43,0,0,1,0-2l1.59-1.59a1.43,1.43,0,0,1,2,0l1.59,1.59a1.41,1.41,0,0,1,0,2l-1.59,1.59a1.41,1.41,0,0,1-2,0"/><rect class="cls-3" x="419.09" y="178.25" width="1.92" height="5.98" transform="translate(-5.13 350.11) rotate(-45)"/><path class="cls-4" d="M421.4,184.13l1.59-1.59a1.41,1.41,0,0,1,2,0l1.59,1.59a1.43,1.43,0,0,1,0,2L425,187.73a1.43,1.43,0,0,1-2,0l-1.59-1.59a1.43,1.43,0,0,1,0-2"/><rect class="cls-3" x="391.16" y="180.63" width="5.98" height="1.92" transform="translate(-12.96 331.89) rotate(-45)"/><path class="cls-4" d="M391.27,182.93l1.59,1.59a1.43,1.43,0,0,1,0,2l-1.59,1.59a1.41,1.41,0,0,1-2,0l-1.59-1.59a1.41,1.41,0,0,1,0-2l1.59-1.59a1.43,1.43,0,0,1,2,0"/><path d="M407,153.06a15.26,15.26,0,1,1-6,1.2,15.18,15.18,0,0,1,6-1.2m0-2.51a17.83,17.83,0,1,0,17.83,17.83A17.83,17.83,0,0,0,407,150.55"/><path d="M411.36,180.64l-.44-1.56c4.63-1.34,6.51-4.24,6.72-6.51a2.52,2.52,0,0,0-1-2.55c-2.2-1.09-4-1.21-6.58,1.47a8.3,8.3,0,0,1-6.84,2.11,8.08,8.08,0,0,1-6.11-3.89c-1.1-1.89-.75-3.22-.26-4,1.44-2.29,5.86-2.8,9.22-2.54a3.72,3.72,0,0,0,3.29-1.74,3.55,3.55,0,0,0,.55-3.34,2.22,2.22,0,0,0-2-1.12,9.74,9.74,0,0,0-7.81,3.17l-1.26-1a11.26,11.26,0,0,1,9.18-3.77,3.83,3.83,0,0,1,3.39,2,5.13,5.13,0,0,1-.67,5,5.28,5.28,0,0,1-4.76,2.44c-3.64-.28-6.89.47-7.71,1.78-.14.22-.56.88.28,2.32a6.47,6.47,0,0,0,4.91,3.1,6.67,6.67,0,0,0,5.47-1.63,8,8,0,0,1,4.23-2.6,6.64,6.64,0,0,1,4.25.81,4,4,0,0,1,1.84,4.15,7.9,7.9,0,0,1-2.08,4.5,12.12,12.12,0,0,1-5.81,3.42"/><circle class="cls-2" cx="345" cy="224.49" r="26.5"/><rect class="cls-3" x="344.05" y="203.08" width="1.92" height="5.98"/><path class="cls-4" d="M346.09,203.08h-2.25a1.43,1.43,0,0,1-1.42-1.43V199.4a1.43,1.43,0,0,1,1.42-1.42h2.25a1.43,1.43,0,0,1,1.43,1.42v2.25a1.43,1.43,0,0,1-1.43,1.43"/><rect class="cls-3" x="360.36" y="223.45" width="5.98" height="1.92"/><path class="cls-4" d="M366.34,225.5v-2.25a1.43,1.43,0,0,1,1.42-1.42H370a1.43,1.43,0,0,1,1.43,1.42v2.25a1.43,1.43,0,0,1-1.43,1.42h-2.25a1.43,1.43,0,0,1-1.42-1.42"/><rect class="cls-3" x="344.05" y="239.92" width="1.92" height="5.98"/><path class="cls-4" d="M343.92,245.9h2.25a1.43,1.43,0,0,1,1.42,1.42v2.25a1.43,1.43,0,0,1-1.42,1.42h-2.25a1.43,1.43,0,0,1-1.43-1.42v-2.25a1.43,1.43,0,0,1,1.43-1.42"/><rect class="cls-3" x="323.59" y="223.38" width="5.98" height="1.92"/><path class="cls-4" d="M323.59,223.25v2.25a1.43,1.43,0,0,1-1.42,1.42h-2.25a1.43,1.43,0,0,1-1.42-1.42v-2.25a1.43,1.43,0,0,1,1.42-1.42h2.25a1.43,1.43,0,0,1,1.42,1.42"/><rect class="cls-3" x="331.27" y="208.2" width="1.92" height="5.98" transform="translate(-52.03 296.78) rotate(-45)"/><path class="cls-4" d="M330.88,208.31l-1.59,1.59a1.43,1.43,0,0,1-2,0l-1.59-1.59a1.41,1.41,0,0,1,0-2l1.59-1.6a1.43,1.43,0,0,1,2,0l1.59,1.6a1.43,1.43,0,0,1,0,2"/><rect class="cls-3" x="355.24" y="210.68" width="5.98" height="1.92" transform="translate(-44.73 315.29) rotate(-45)"/><path class="cls-4" d="M361.11,210.29l-1.59-1.59a1.43,1.43,0,0,1,0-2l1.59-1.59a1.43,1.43,0,0,1,2,0l1.59,1.59a1.41,1.41,0,0,1,0,2l-1.59,1.59a1.41,1.41,0,0,1-2,0"/><rect class="cls-3" x="357.09" y="234.25" width="1.92" height="5.98" transform="translate(-62.89 322.67) rotate(-45)"/><path class="cls-4" d="M359.4,240.13l1.59-1.59a1.41,1.41,0,0,1,2,0l1.59,1.59a1.43,1.43,0,0,1,0,2L363,243.73a1.43,1.43,0,0,1-2,0l-1.59-1.59a1.43,1.43,0,0,1,0-2"/><rect class="cls-3" x="329.16" y="236.63" width="5.98" height="1.92" transform="translate(-70.71 304.46) rotate(-45)"/><path class="cls-4" d="M329.27,238.93l1.59,1.59a1.43,1.43,0,0,1,0,2l-1.59,1.59a1.41,1.41,0,0,1-2,0l-1.59-1.59a1.41,1.41,0,0,1,0-2l1.59-1.59a1.43,1.43,0,0,1,2,0"/><path d="M345,209.06a15.26,15.26,0,1,1-6,1.2,15.18,15.18,0,0,1,6-1.2m0-2.51a17.83,17.83,0,1,0,17.83,17.83A17.83,17.83,0,0,0,345,206.55"/><path d="M349.36,236.64l-.44-1.56c4.63-1.34,6.51-4.24,6.72-6.51a2.52,2.52,0,0,0-1-2.55c-2.2-1.09-4-1.21-6.58,1.47a8.3,8.3,0,0,1-6.84,2.11,8.08,8.08,0,0,1-6.11-3.89c-1.1-1.89-.75-3.22-.26-4,1.44-2.29,5.86-2.8,9.22-2.54a3.72,3.72,0,0,0,3.29-1.74,3.55,3.55,0,0,0,.55-3.34,2.22,2.22,0,0,0-2-1.12,9.74,9.74,0,0,0-7.81,3.17l-1.26-1a11.26,11.26,0,0,1,9.18-3.77,3.83,3.83,0,0,1,3.39,2,5.13,5.13,0,0,1-.67,5,5.28,5.28,0,0,1-4.76,2.44c-3.64-.28-6.89.47-7.71,1.78-.14.22-.56.88.28,2.32a6.47,6.47,0,0,0,4.91,3.1,6.67,6.67,0,0,0,5.47-1.63,8,8,0,0,1,4.23-2.6,6.64,6.64,0,0,1,4.25.81,4,4,0,0,1,1.84,4.15,7.9,7.9,0,0,1-2.08,4.5,12.12,12.12,0,0,1-5.81,3.42"/><circle class="cls-2" cx="286" cy="171.49" r="26.5"/><rect class="cls-3" x="285.05" y="150.08" width="1.92" height="5.98"/><path class="cls-4" d="M287.09,150.08h-2.25a1.43,1.43,0,0,1-1.42-1.43V146.4a1.43,1.43,0,0,1,1.42-1.42h2.25a1.43,1.43,0,0,1,1.43,1.42v2.25a1.43,1.43,0,0,1-1.43,1.43"/><rect class="cls-3" x="301.36" y="170.45" width="5.98" height="1.92"/><path class="cls-4" d="M307.34,172.5v-2.25a1.43,1.43,0,0,1,1.42-1.42H311a1.43,1.43,0,0,1,1.43,1.42v2.25a1.43,1.43,0,0,1-1.43,1.42h-2.25a1.43,1.43,0,0,1-1.42-1.42"/><rect class="cls-3" x="285.05" y="186.92" width="1.92" height="5.98"/><path class="cls-4" d="M284.92,192.9h2.25a1.43,1.43,0,0,1,1.42,1.42v2.25a1.43,1.43,0,0,1-1.42,1.42h-2.25a1.43,1.43,0,0,1-1.43-1.42v-2.25a1.43,1.43,0,0,1,1.43-1.42"/><rect class="cls-3" x="264.59" y="170.38" width="5.98" height="1.92"/><path class="cls-4" d="M264.59,170.25v2.25a1.43,1.43,0,0,1-1.42,1.42h-2.25a1.43,1.43,0,0,1-1.42-1.42v-2.25a1.43,1.43,0,0,1,1.42-1.42h2.25a1.43,1.43,0,0,1,1.42,1.42"/><rect class="cls-3" x="272.27" y="155.2" width="1.92" height="5.98" transform="translate(-31.83 239.54) rotate(-45)"/><path class="cls-4" d="M271.88,155.31l-1.59,1.59a1.43,1.43,0,0,1-2,0l-1.59-1.59a1.41,1.41,0,0,1,0-2l1.59-1.6a1.43,1.43,0,0,1,2,0l1.59,1.6a1.43,1.43,0,0,1,0,2"/><rect class="cls-3" x="296.24" y="157.68" width="5.98" height="1.92" transform="translate(-24.53 258.05) rotate(-45)"/><path class="cls-4" d="M302.11,157.29l-1.59-1.59a1.43,1.43,0,0,1,0-2l1.59-1.59a1.43,1.43,0,0,1,2,0l1.59,1.59a1.41,1.41,0,0,1,0,2l-1.59,1.59a1.41,1.41,0,0,1-2,0"/><rect class="cls-3" x="298.09" y="181.25" width="1.92" height="5.98" transform="translate(-42.69 265.43) rotate(-45)"/><path class="cls-4" d="M300.4,187.13l1.59-1.59a1.41,1.41,0,0,1,2,0l1.59,1.59a1.43,1.43,0,0,1,0,2L304,190.73a1.43,1.43,0,0,1-2,0l-1.59-1.59a1.43,1.43,0,0,1,0-2"/><rect class="cls-3" x="270.16" y="183.63" width="5.98" height="1.92" transform="translate(-50.52 247.21) rotate(-45)"/><path class="cls-4" d="M270.27,185.93l1.59,1.59a1.43,1.43,0,0,1,0,2l-1.59,1.59a1.41,1.41,0,0,1-2,0l-1.59-1.59a1.41,1.41,0,0,1,0-2l1.59-1.59a1.43,1.43,0,0,1,2,0"/><path d="M286,156.06a15.26,15.26,0,1,1-6,1.2,15.18,15.18,0,0,1,6-1.2m0-2.51a17.83,17.83,0,1,0,17.83,17.83A17.83,17.83,0,0,0,286,153.55"/><path d="M290.36,183.64l-.44-1.56c4.63-1.34,6.51-4.24,6.72-6.51a2.52,2.52,0,0,0-1-2.55c-2.2-1.09-4-1.21-6.58,1.47a8.3,8.3,0,0,1-6.84,2.11,8.08,8.08,0,0,1-6.11-3.89c-1.1-1.89-.75-3.22-.26-4,1.44-2.29,5.86-2.8,9.22-2.54a3.72,3.72,0,0,0,3.29-1.74,3.55,3.55,0,0,0,.55-3.34,2.22,2.22,0,0,0-2-1.12,9.74,9.74,0,0,0-7.81,3.17l-1.26-1a11.26,11.26,0,0,1,9.18-3.77,3.83,3.83,0,0,1,3.39,2,5.13,5.13,0,0,1-.67,5,5.28,5.28,0,0,1-4.76,2.44c-3.64-.28-6.89.47-7.71,1.78-.14.22-.56.88.28,2.32a6.47,6.47,0,0,0,4.91,3.1,6.67,6.67,0,0,0,5.47-1.63,8,8,0,0,1,4.23-2.6,6.64,6.64,0,0,1,4.25.81,4,4,0,0,1,1.84,4.15,7.9,7.9,0,0,1-2.08,4.5,12.12,12.12,0,0,1-5.81,3.42"/><circle class="cls-2" cx="372" cy="87.49" r="26.5"/><rect class="cls-3" x="371.05" y="66.08" width="1.92" height="5.98"/><path class="cls-4" d="M373.09,66.08h-2.25a1.43,1.43,0,0,1-1.42-1.43V62.4A1.43,1.43,0,0,1,370.84,61h2.25a1.43,1.43,0,0,1,1.43,1.42v2.25a1.43,1.43,0,0,1-1.43,1.43"/><rect class="cls-3" x="387.36" y="86.45" width="5.98" height="1.92"/><path class="cls-4" d="M393.34,88.5V86.25a1.43,1.43,0,0,1,1.42-1.42H397a1.43,1.43,0,0,1,1.43,1.42V88.5A1.43,1.43,0,0,1,397,89.92h-2.25a1.43,1.43,0,0,1-1.42-1.42"/><rect class="cls-3" x="371.05" y="102.92" width="1.92" height="5.98"/><path class="cls-4" d="M370.92,108.9h2.25a1.43,1.43,0,0,1,1.42,1.42v2.25a1.43,1.43,0,0,1-1.42,1.42h-2.25a1.43,1.43,0,0,1-1.43-1.42v-2.25a1.43,1.43,0,0,1,1.43-1.42"/><rect class="cls-3" x="350.59" y="86.38" width="5.98" height="1.92"/><path class="cls-4" d="M350.59,86.25V88.5a1.43,1.43,0,0,1-1.42,1.42h-2.25a1.43,1.43,0,0,1-1.42-1.42V86.25a1.43,1.43,0,0,1,1.42-1.42h2.25a1.43,1.43,0,0,1,1.42,1.42"/><rect class="cls-3" x="358.27" y="71.2" width="1.92" height="5.98" transform="translate(52.76 275.74) rotate(-45)"/><path class="cls-4" d="M357.88,71.31l-1.59,1.59a1.43,1.43,0,0,1-2,0l-1.59-1.59a1.41,1.41,0,0,1,0-2l1.59-1.6a1.43,1.43,0,0,1,2,0l1.59,1.6a1.43,1.43,0,0,1,0,2"/><rect class="cls-3" x="382.24" y="73.68" width="5.98" height="1.92" transform="translate(60.05 294.26) rotate(-45)"/><path class="cls-4" d="M388.11,73.29l-1.59-1.59a1.43,1.43,0,0,1,0-2l1.59-1.59a1.43,1.43,0,0,1,2,0l1.59,1.59a1.41,1.41,0,0,1,0,2l-1.59,1.59a1.41,1.41,0,0,1-2,0"/><rect class="cls-3" x="384.09" y="97.25" width="1.92" height="5.98" transform="translate(41.9 301.63) rotate(-45)"/><path class="cls-4" d="M386.4,103.13l1.59-1.59a1.41,1.41,0,0,1,2,0l1.59,1.59a1.43,1.43,0,0,1,0,2L390,106.73a1.43,1.43,0,0,1-2,0l-1.59-1.59a1.43,1.43,0,0,1,0-2"/><rect class="cls-3" x="356.16" y="99.63" width="5.98" height="1.92" transform="translate(34.07 283.42) rotate(-45)"/><path class="cls-4" d="M356.27,101.93l1.59,1.59a1.43,1.43,0,0,1,0,2l-1.59,1.59a1.41,1.41,0,0,1-2,0l-1.59-1.59a1.41,1.41,0,0,1,0-2l1.59-1.59a1.43,1.43,0,0,1,2,0"/><path d="M372,72.06a15.26,15.26,0,1,1-6,1.2,15.18,15.18,0,0,1,6-1.2m0-2.51A17.83,17.83,0,1,0,389.8,87.38,17.83,17.83,0,0,0,372,69.55"/><path d="M376.36,99.64l-.44-1.56c4.63-1.34,6.51-4.24,6.72-6.51a2.52,2.52,0,0,0-1-2.55c-2.2-1.09-4-1.21-6.58,1.47a8.3,8.3,0,0,1-6.84,2.11,8.08,8.08,0,0,1-6.11-3.89c-1.1-1.89-.75-3.22-.26-4,1.44-2.29,5.86-2.8,9.22-2.54a3.72,3.72,0,0,0,3.29-1.74,3.55,3.55,0,0,0,.55-3.34,2.22,2.22,0,0,0-2-1.12,9.74,9.74,0,0,0-7.81,3.17l-1.26-1A11.26,11.26,0,0,1,373,74.35a3.83,3.83,0,0,1,3.39,2,5.13,5.13,0,0,1-.67,5A5.28,5.28,0,0,1,371,83.79c-3.64-.28-6.89.47-7.71,1.78-.14.22-.56.88.28,2.32a6.47,6.47,0,0,0,4.91,3.1,6.67,6.67,0,0,0,5.47-1.63,8,8,0,0,1,4.23-2.6,6.64,6.64,0,0,1,4.25.81,4,4,0,0,1,1.84,4.15,7.9,7.9,0,0,1-2.08,4.5,12.12,12.12,0,0,1-5.81,3.42"/><circle class="cls-2" cx="35" cy="254.49" r="26.5"/><rect class="cls-3" x="34.05" y="233.08" width="1.92" height="5.98"/><path class="cls-4" d="M36.09,233.08H33.84a1.43,1.43,0,0,1-1.42-1.43V229.4A1.43,1.43,0,0,1,33.84,228h2.25a1.43,1.43,0,0,1,1.43,1.42v2.25a1.43,1.43,0,0,1-1.43,1.43"/><rect class="cls-3" x="50.36" y="253.45" width="5.98" height="1.92"/><path class="cls-4" d="M56.34,255.5v-2.25a1.43,1.43,0,0,1,1.42-1.42H60a1.43,1.43,0,0,1,1.43,1.42v2.25A1.43,1.43,0,0,1,60,256.92H57.76a1.43,1.43,0,0,1-1.42-1.42"/><rect class="cls-3" x="34.05" y="269.92" width="1.92" height="5.98"/><path class="cls-4" d="M33.92,275.9h2.25a1.43,1.43,0,0,1,1.42,1.42v2.25A1.43,1.43,0,0,1,36.17,281H33.92a1.43,1.43,0,0,1-1.43-1.42v-2.25a1.43,1.43,0,0,1,1.43-1.42"/><rect class="cls-3" x="13.59" y="253.38" width="5.98" height="1.92"/><path class="cls-4" d="M13.59,253.25v2.25a1.43,1.43,0,0,1-1.42,1.42H9.92A1.43,1.43,0,0,1,8.5,255.5v-2.25a1.43,1.43,0,0,1,1.42-1.42h2.25a1.43,1.43,0,0,1,1.42,1.42"/><rect class="cls-3" x="21.27" y="238.2" width="1.92" height="5.98" transform="translate(-164.04 86.36) rotate(-45)"/><path class="cls-4" d="M20.88,238.31l-1.59,1.59a1.43,1.43,0,0,1-2,0l-1.59-1.59a1.41,1.41,0,0,1,0-2l1.59-1.6a1.43,1.43,0,0,1,2,0l1.59,1.6a1.43,1.43,0,0,1,0,2"/><rect class="cls-3" x="45.24" y="240.68" width="5.98" height="1.92" transform="translate(-156.74 104.88) rotate(-45)"/><path class="cls-4" d="M51.11,240.29l-1.59-1.59a1.43,1.43,0,0,1,0-2l1.59-1.59a1.43,1.43,0,0,1,2,0l1.59,1.59a1.41,1.41,0,0,1,0,2l-1.59,1.59a1.41,1.41,0,0,1-2,0"/><rect class="cls-3" x="47.09" y="264.25" width="1.92" height="5.98" transform="translate(-174.9 112.25) rotate(-45)"/><path class="cls-4" d="M49.4,270.13,51,268.54a1.41,1.41,0,0,1,2,0l1.59,1.59a1.43,1.43,0,0,1,0,2L53,273.73a1.43,1.43,0,0,1-2,0l-1.59-1.59a1.43,1.43,0,0,1,0-2"/><rect class="cls-3" x="19.16" y="266.63" width="5.98" height="1.92" transform="translate(-182.72 94.04) rotate(-45)"/><path class="cls-4" d="M19.27,268.93l1.59,1.59a1.43,1.43,0,0,1,0,2l-1.59,1.59a1.41,1.41,0,0,1-2,0l-1.59-1.59a1.41,1.41,0,0,1,0-2l1.59-1.59a1.43,1.43,0,0,1,2,0"/><path d="M35,239.06a15.26,15.26,0,1,1-6,1.2,15.18,15.18,0,0,1,6-1.2m0-2.51A17.83,17.83,0,1,0,52.8,254.38,17.83,17.83,0,0,0,35,236.55"/><path d="M39.36,266.64l-.44-1.56c4.63-1.34,6.51-4.24,6.72-6.51a2.52,2.52,0,0,0-1-2.55c-2.2-1.09-4-1.21-6.58,1.47a8.3,8.3,0,0,1-6.84,2.11,8.08,8.08,0,0,1-6.11-3.89c-1.1-1.89-.75-3.22-.26-4,1.44-2.29,5.86-2.8,9.22-2.54a3.72,3.72,0,0,0,3.29-1.74,3.55,3.55,0,0,0,.55-3.34,2.22,2.22,0,0,0-2-1.12,9.74,9.74,0,0,0-7.81,3.17l-1.26-1A11.26,11.26,0,0,1,36,241.35a3.83,3.83,0,0,1,3.39,2,5.13,5.13,0,0,1-.67,5A5.28,5.28,0,0,1,34,250.79c-3.64-.28-6.89.47-7.71,1.78-.14.22-.56.88.28,2.32a6.47,6.47,0,0,0,4.91,3.1,6.67,6.67,0,0,0,5.47-1.63,8,8,0,0,1,4.23-2.6,6.64,6.64,0,0,1,4.25.81,4,4,0,0,1,1.84,4.15,7.9,7.9,0,0,1-2.08,4.5,12.12,12.12,0,0,1-5.81,3.42"/><circle class="cls-2" cx="170" cy="138.49" r="26.5"/><rect class="cls-3" x="169.05" y="117.08" width="1.92" height="5.98"/><path class="cls-4" d="M171.09,117.08h-2.25a1.43,1.43,0,0,1-1.42-1.43V113.4a1.43,1.43,0,0,1,1.42-1.42h2.25a1.43,1.43,0,0,1,1.43,1.42v2.25a1.43,1.43,0,0,1-1.43,1.43"/><rect class="cls-3" x="185.36" y="137.45" width="5.98" height="1.92"/><path class="cls-4" d="M191.34,139.5v-2.25a1.43,1.43,0,0,1,1.42-1.42H195a1.43,1.43,0,0,1,1.43,1.42v2.25a1.43,1.43,0,0,1-1.43,1.42h-2.25a1.43,1.43,0,0,1-1.42-1.42"/><rect class="cls-3" x="169.05" y="153.92" width="1.92" height="5.98"/><path class="cls-4" d="M168.92,159.9h2.25a1.43,1.43,0,0,1,1.42,1.42v2.25a1.43,1.43,0,0,1-1.42,1.42h-2.25a1.43,1.43,0,0,1-1.43-1.42v-2.25a1.43,1.43,0,0,1,1.43-1.42"/><rect class="cls-3" x="148.59" y="137.38" width="5.98" height="1.92"/><path class="cls-4" d="M148.59,137.25v2.25a1.43,1.43,0,0,1-1.42,1.42h-2.25a1.43,1.43,0,0,1-1.42-1.42v-2.25a1.43,1.43,0,0,1,1.42-1.42h2.25a1.43,1.43,0,0,1,1.42,1.42"/><rect class="cls-3" x="156.27" y="122.2" width="1.92" height="5.98" transform="translate(-42.47 147.84) rotate(-45)"/><path class="cls-4" d="M155.88,122.31l-1.59,1.59a1.43,1.43,0,0,1-2,0l-1.59-1.59a1.41,1.41,0,0,1,0-2l1.59-1.6a1.43,1.43,0,0,1,2,0l1.59,1.6a1.43,1.43,0,0,1,0,2"/><rect class="cls-3" x="180.24" y="124.68" width="5.98" height="1.92" transform="translate(-35.17 166.36) rotate(-45)"/><path class="cls-4" d="M186.11,124.29l-1.59-1.59a1.43,1.43,0,0,1,0-2l1.59-1.59a1.43,1.43,0,0,1,2,0l1.59,1.59a1.41,1.41,0,0,1,0,2l-1.59,1.59a1.41,1.41,0,0,1-2,0"/><rect class="cls-3" x="182.09" y="148.25" width="1.92" height="5.98" transform="translate(-53.33 173.74) rotate(-45)"/><path class="cls-4" d="M184.4,154.13l1.59-1.59a1.41,1.41,0,0,1,2,0l1.59,1.59a1.43,1.43,0,0,1,0,2L188,157.73a1.43,1.43,0,0,1-2,0l-1.59-1.59a1.43,1.43,0,0,1,0-2"/><rect class="cls-3" x="154.16" y="150.63" width="5.98" height="1.92" transform="translate(-61.16 155.52) rotate(-45)"/><path class="cls-4" d="M154.27,152.93l1.59,1.59a1.43,1.43,0,0,1,0,2l-1.59,1.59a1.41,1.41,0,0,1-2,0l-1.59-1.59a1.41,1.41,0,0,1,0-2l1.59-1.59a1.43,1.43,0,0,1,2,0"/><path d="M170,123.06a15.26,15.26,0,1,1-6,1.2,15.18,15.18,0,0,1,6-1.2m0-2.51a17.83,17.83,0,1,0,17.83,17.83A17.83,17.83,0,0,0,170,120.55"/><path d="M174.36,150.64l-.44-1.56c4.63-1.34,6.51-4.24,6.72-6.51a2.52,2.52,0,0,0-1-2.55c-2.2-1.09-4-1.21-6.58,1.47a8.3,8.3,0,0,1-6.84,2.11,8.08,8.08,0,0,1-6.11-3.89c-1.1-1.89-.75-3.22-.26-4,1.44-2.29,5.86-2.8,9.22-2.54a3.72,3.72,0,0,0,3.29-1.74,3.55,3.55,0,0,0,.55-3.34,2.22,2.22,0,0,0-2-1.12,9.74,9.74,0,0,0-7.81,3.17l-1.26-1a11.26,11.26,0,0,1,9.18-3.77,3.83,3.83,0,0,1,3.39,2,5.13,5.13,0,0,1-.67,5,5.28,5.28,0,0,1-4.76,2.44c-3.64-.28-6.89.47-7.71,1.78-.14.22-.56.88.28,2.32a6.47,6.47,0,0,0,4.91,3.1,6.67,6.67,0,0,0,5.47-1.63,8,8,0,0,1,4.23-2.6,6.64,6.64,0,0,1,4.25.81,4,4,0,0,1,1.84,4.15,7.9,7.9,0,0,1-2.08,4.5,12.12,12.12,0,0,1-5.81,3.42"/><circle class="cls-2" cx="159" cy="315.49" r="26.5"/><rect class="cls-3" x="158.05" y="294.08" width="1.92" height="5.98"/><path class="cls-4" d="M160.09,294.08h-2.25a1.43,1.43,0,0,1-1.42-1.43V290.4a1.43,1.43,0,0,1,1.42-1.42h2.25a1.43,1.43,0,0,1,1.43,1.42v2.25a1.43,1.43,0,0,1-1.43,1.43"/><rect class="cls-3" x="174.36" y="314.45" width="5.98" height="1.92"/><path class="cls-4" d="M180.34,316.5v-2.25a1.43,1.43,0,0,1,1.42-1.42H184a1.43,1.43,0,0,1,1.43,1.42v2.25a1.43,1.43,0,0,1-1.43,1.42h-2.25a1.43,1.43,0,0,1-1.42-1.42"/><rect class="cls-3" x="158.05" y="330.92" width="1.92" height="5.98"/><path class="cls-4" d="M157.92,336.9h2.25a1.43,1.43,0,0,1,1.42,1.42v2.25a1.43,1.43,0,0,1-1.42,1.42h-2.25a1.43,1.43,0,0,1-1.43-1.42v-2.25a1.43,1.43,0,0,1,1.43-1.42"/><rect class="cls-3" x="137.59" y="314.38" width="5.98" height="1.92"/><path class="cls-4" d="M137.59,314.25v2.25a1.43,1.43,0,0,1-1.42,1.42h-2.25a1.43,1.43,0,0,1-1.42-1.42v-2.25a1.43,1.43,0,0,1,1.42-1.42h2.25a1.43,1.43,0,0,1,1.42,1.42"/><rect class="cls-3" x="145.27" y="299.2" width="1.92" height="5.98" transform="translate(-170.85 191.91) rotate(-45)"/><path class="cls-4" d="M144.88,299.31l-1.59,1.59a1.43,1.43,0,0,1-2,0l-1.59-1.59a1.41,1.41,0,0,1,0-2l1.59-1.6a1.43,1.43,0,0,1,2,0l1.59,1.6a1.43,1.43,0,0,1,0,2"/><rect class="cls-3" x="169.24" y="301.68" width="5.98" height="1.92" transform="translate(-163.55 210.42) rotate(-45)"/><path class="cls-4" d="M175.11,301.29l-1.59-1.59a1.43,1.43,0,0,1,0-2l1.59-1.59a1.43,1.43,0,0,1,2,0l1.59,1.59a1.41,1.41,0,0,1,0,2l-1.59,1.59a1.41,1.41,0,0,1-2,0"/><rect class="cls-3" x="171.09" y="325.25" width="1.92" height="5.98" transform="translate(-181.71 217.8) rotate(-45)"/><path class="cls-4" d="M173.4,331.13l1.59-1.59a1.41,1.41,0,0,1,2,0l1.59,1.59a1.43,1.43,0,0,1,0,2L177,334.73a1.43,1.43,0,0,1-2,0l-1.59-1.59a1.43,1.43,0,0,1,0-2"/><rect class="cls-3" x="143.16" y="327.63" width="5.98" height="1.92" transform="translate(-189.54 199.59) rotate(-45)"/><path class="cls-4" d="M143.27,329.93l1.59,1.59a1.43,1.43,0,0,1,0,2l-1.59,1.59a1.41,1.41,0,0,1-2,0l-1.59-1.59a1.41,1.41,0,0,1,0-2l1.59-1.59a1.43,1.43,0,0,1,2,0"/><path d="M159,300.06a15.26,15.26,0,1,1-6,1.2,15.18,15.18,0,0,1,6-1.2m0-2.51a17.83,17.83,0,1,0,17.83,17.83A17.83,17.83,0,0,0,159,297.55"/><path d="M163.36,327.64l-.44-1.56c4.63-1.34,6.51-4.24,6.72-6.51a2.52,2.52,0,0,0-1-2.55c-2.2-1.09-4-1.21-6.58,1.47a8.3,8.3,0,0,1-6.84,2.11,8.08,8.08,0,0,1-6.11-3.89c-1.1-1.89-.75-3.22-.26-4,1.44-2.29,5.86-2.8,9.22-2.54a3.72,3.72,0,0,0,3.29-1.74,3.55,3.55,0,0,0,.55-3.34,2.22,2.22,0,0,0-2-1.12,9.74,9.74,0,0,0-7.81,3.17l-1.26-1a11.26,11.26,0,0,1,9.18-3.77,3.83,3.83,0,0,1,3.39,2,5.13,5.13,0,0,1-.67,5,5.28,5.28,0,0,1-4.76,2.44c-3.64-.28-6.89.47-7.71,1.78-.14.22-.56.88.28,2.32a6.47,6.47,0,0,0,4.91,3.1,6.67,6.67,0,0,0,5.47-1.63,8,8,0,0,1,4.23-2.6,6.64,6.64,0,0,1,4.25.81,4,4,0,0,1,1.84,4.15,7.9,7.9,0,0,1-2.08,4.5,12.12,12.12,0,0,1-5.81,3.42"/><circle class="cls-2" cx="395" cy="291.49" r="26.5"/><rect class="cls-3" x="394.05" y="270.08" width="1.92" height="5.98"/><path class="cls-4" d="M396.09,270.08h-2.25a1.43,1.43,0,0,1-1.42-1.43V266.4a1.43,1.43,0,0,1,1.42-1.42h2.25a1.43,1.43,0,0,1,1.43,1.42v2.25a1.43,1.43,0,0,1-1.43,1.43"/><rect class="cls-3" x="410.36" y="290.45" width="5.98" height="1.92"/><path class="cls-4" d="M416.34,292.5v-2.25a1.43,1.43,0,0,1,1.42-1.42H420a1.43,1.43,0,0,1,1.43,1.42v2.25a1.43,1.43,0,0,1-1.43,1.42h-2.25a1.43,1.43,0,0,1-1.42-1.42"/><rect class="cls-3" x="394.05" y="306.92" width="1.92" height="5.98"/><path class="cls-4" d="M393.92,312.9h2.25a1.43,1.43,0,0,1,1.42,1.42v2.25a1.43,1.43,0,0,1-1.42,1.42h-2.25a1.43,1.43,0,0,1-1.43-1.42v-2.25a1.43,1.43,0,0,1,1.43-1.42"/><rect class="cls-3" x="373.59" y="290.38" width="5.98" height="1.92"/><path class="cls-4" d="M373.59,290.25v2.25a1.43,1.43,0,0,1-1.42,1.42h-2.25a1.43,1.43,0,0,1-1.42-1.42v-2.25a1.43,1.43,0,0,1,1.42-1.42h2.25a1.43,1.43,0,0,1,1.42,1.42"/><rect class="cls-3" x="381.27" y="275.2" width="1.92" height="5.98" transform="translate(-84.76 351.76) rotate(-45)"/><path class="cls-4" d="M380.88,275.31l-1.59,1.59a1.43,1.43,0,0,1-2,0l-1.59-1.59a1.41,1.41,0,0,1,0-2l1.59-1.6a1.43,1.43,0,0,1,2,0l1.59,1.6a1.43,1.43,0,0,1,0,2"/><rect class="cls-3" x="405.24" y="277.68" width="5.98" height="1.92" transform="translate(-77.46 370.27) rotate(-45)"/><path class="cls-4" d="M411.11,277.29l-1.59-1.59a1.43,1.43,0,0,1,0-2l1.59-1.59a1.43,1.43,0,0,1,2,0l1.59,1.59a1.41,1.41,0,0,1,0,2l-1.59,1.59a1.41,1.41,0,0,1-2,0"/><rect class="cls-3" x="407.09" y="301.25" width="1.92" height="5.98" transform="translate(-95.62 377.65) rotate(-45)"/><path class="cls-4" d="M409.4,307.13l1.59-1.59a1.41,1.41,0,0,1,2,0l1.59,1.59a1.43,1.43,0,0,1,0,2L413,310.73a1.43,1.43,0,0,1-2,0l-1.59-1.59a1.43,1.43,0,0,1,0-2"/><rect class="cls-3" x="379.16" y="303.63" width="5.98" height="1.92" transform="translate(-103.45 359.43) rotate(-45)"/><path class="cls-4" d="M379.27,305.93l1.59,1.59a1.43,1.43,0,0,1,0,2l-1.59,1.59a1.41,1.41,0,0,1-2,0l-1.59-1.59a1.41,1.41,0,0,1,0-2l1.59-1.59a1.43,1.43,0,0,1,2,0"/><path d="M395,276.06a15.26,15.26,0,1,1-6,1.2,15.18,15.18,0,0,1,6-1.2m0-2.51a17.83,17.83,0,1,0,17.83,17.83A17.83,17.83,0,0,0,395,273.55"/><path d="M399.36,303.64l-.44-1.56c4.63-1.34,6.51-4.24,6.72-6.51a2.52,2.52,0,0,0-1-2.55c-2.2-1.09-4-1.21-6.58,1.47a8.3,8.3,0,0,1-6.84,2.11,8.08,8.08,0,0,1-6.11-3.89c-1.1-1.89-.75-3.22-.26-4,1.44-2.29,5.86-2.8,9.22-2.54a3.72,3.72,0,0,0,3.29-1.74,3.55,3.55,0,0,0,.55-3.34,2.22,2.22,0,0,0-2-1.12,9.74,9.74,0,0,0-7.81,3.17l-1.26-1a11.26,11.26,0,0,1,9.18-3.77,3.83,3.83,0,0,1,3.39,2,5.13,5.13,0,0,1-.67,5,5.28,5.28,0,0,1-4.76,2.44c-3.64-.28-6.89.47-7.71,1.78-.14.22-.56.88.28,2.32a6.47,6.47,0,0,0,4.91,3.1,6.67,6.67,0,0,0,5.47-1.63,8,8,0,0,1,4.23-2.6,6.64,6.64,0,0,1,4.25.81,4,4,0,0,1,1.84,4.15,7.9,7.9,0,0,1-2.08,4.5,12.12,12.12,0,0,1-5.81,3.42"/><circle class="cls-2" cx="389" cy="376.49" r="26.5"/><rect class="cls-3" x="388.05" y="355.08" width="1.92" height="5.98"/><path class="cls-4" d="M390.09,355.08h-2.25a1.43,1.43,0,0,1-1.42-1.43V351.4a1.43,1.43,0,0,1,1.42-1.42h2.25a1.43,1.43,0,0,1,1.43,1.42v2.25a1.43,1.43,0,0,1-1.43,1.43"/><rect class="cls-3" x="404.36" y="375.45" width="5.98" height="1.92"/><path class="cls-4" d="M410.34,377.5v-2.25a1.43,1.43,0,0,1,1.42-1.42H414a1.43,1.43,0,0,1,1.43,1.42v2.25a1.43,1.43,0,0,1-1.43,1.42h-2.25a1.43,1.43,0,0,1-1.42-1.42"/><rect class="cls-3" x="388.05" y="391.92" width="1.92" height="5.98"/><path class="cls-4" d="M387.92,397.9h2.25a1.43,1.43,0,0,1,1.42,1.42v2.25a1.43,1.43,0,0,1-1.42,1.42h-2.25a1.43,1.43,0,0,1-1.43-1.42v-2.25a1.43,1.43,0,0,1,1.43-1.42"/><rect class="cls-3" x="367.59" y="375.38" width="5.98" height="1.92"/><path class="cls-4" d="M367.59,375.25v2.25a1.43,1.43,0,0,1-1.42,1.42h-2.25a1.43,1.43,0,0,1-1.42-1.42v-2.25a1.43,1.43,0,0,1,1.42-1.42h2.25a1.43,1.43,0,0,1,1.42,1.42"/><rect class="cls-3" x="375.27" y="360.2" width="1.92" height="5.98" transform="translate(-146.62 372.41) rotate(-45)"/><path class="cls-4" d="M374.88,360.31l-1.59,1.59a1.43,1.43,0,0,1-2,0l-1.59-1.59a1.41,1.41,0,0,1,0-2l1.59-1.6a1.43,1.43,0,0,1,2,0l1.59,1.6a1.43,1.43,0,0,1,0,2"/><rect class="cls-3" x="399.24" y="362.68" width="5.98" height="1.92" transform="translate(-139.32 390.93) rotate(-45)"/><path class="cls-4" d="M405.11,362.29l-1.59-1.59a1.43,1.43,0,0,1,0-2l1.59-1.59a1.43,1.43,0,0,1,2,0l1.59,1.59a1.41,1.41,0,0,1,0,2l-1.59,1.59a1.41,1.41,0,0,1-2,0"/><rect class="cls-3" x="401.09" y="386.25" width="1.92" height="5.98" transform="translate(-157.48 398.3) rotate(-45)"/><path class="cls-4" d="M403.4,392.13l1.59-1.59a1.41,1.41,0,0,1,2,0l1.59,1.59a1.43,1.43,0,0,1,0,2L407,395.73a1.43,1.43,0,0,1-2,0l-1.59-1.59a1.43,1.43,0,0,1,0-2"/><rect class="cls-3" x="373.16" y="388.63" width="5.98" height="1.92" transform="translate(-165.31 380.09) rotate(-45)"/><path class="cls-4" d="M373.27,390.93l1.59,1.59a1.43,1.43,0,0,1,0,2l-1.59,1.59a1.41,1.41,0,0,1-2,0l-1.59-1.59a1.41,1.41,0,0,1,0-2l1.59-1.59a1.43,1.43,0,0,1,2,0"/><path d="M389,361.06a15.26,15.26,0,1,1-6,1.2,15.18,15.18,0,0,1,6-1.2m0-2.51a17.83,17.83,0,1,0,17.83,17.83A17.83,17.83,0,0,0,389,358.55"/><path d="M393.36,388.64l-.44-1.56c4.63-1.34,6.51-4.24,6.72-6.51a2.52,2.52,0,0,0-1-2.55c-2.2-1.09-4-1.21-6.58,1.47a8.3,8.3,0,0,1-6.84,2.11,8.08,8.08,0,0,1-6.11-3.89c-1.1-1.89-.75-3.22-.26-4,1.44-2.29,5.86-2.8,9.22-2.54a3.72,3.72,0,0,0,3.29-1.74,3.55,3.55,0,0,0,.55-3.34,2.22,2.22,0,0,0-2-1.12,9.74,9.74,0,0,0-7.81,3.17l-1.26-1a11.26,11.26,0,0,1,9.18-3.77,3.83,3.83,0,0,1,3.39,2,5.13,5.13,0,0,1-.67,5,5.28,5.28,0,0,1-4.76,2.44c-3.64-.28-6.89.47-7.71,1.78-.14.22-.56.88.28,2.32a6.47,6.47,0,0,0,4.91,3.1,6.67,6.67,0,0,0,5.47-1.63,8,8,0,0,1,4.23-2.6,6.64,6.64,0,0,1,4.25.81,4,4,0,0,1,1.84,4.15,7.9,7.9,0,0,1-2.08,4.5,12.12,12.12,0,0,1-5.81,3.42"/><circle class="cls-2" cx="224" cy="265.49" r="26.5"/><rect class="cls-3" x="223.05" y="244.08" width="1.92" height="5.98"/><path class="cls-4" d="M225.09,244.08h-2.25a1.43,1.43,0,0,1-1.42-1.43V240.4a1.43,1.43,0,0,1,1.42-1.42h2.25a1.43,1.43,0,0,1,1.43,1.42v2.25a1.43,1.43,0,0,1-1.43,1.43"/><rect class="cls-3" x="239.36" y="264.45" width="5.98" height="1.92"/><path class="cls-4" d="M245.34,266.5v-2.25a1.43,1.43,0,0,1,1.42-1.42H249a1.43,1.43,0,0,1,1.43,1.42v2.25a1.43,1.43,0,0,1-1.43,1.42h-2.25a1.43,1.43,0,0,1-1.42-1.42"/><rect class="cls-3" x="223.05" y="280.92" width="1.92" height="5.98"/><path class="cls-4" d="M222.92,286.9h2.25a1.43,1.43,0,0,1,1.42,1.42v2.25a1.43,1.43,0,0,1-1.42,1.42h-2.25a1.43,1.43,0,0,1-1.43-1.42v-2.25a1.43,1.43,0,0,1,1.43-1.42"/><rect class="cls-3" x="202.59" y="264.38" width="5.98" height="1.92"/><path class="cls-4" d="M202.59,264.25v2.25a1.43,1.43,0,0,1-1.42,1.42h-2.25a1.43,1.43,0,0,1-1.42-1.42v-2.25a1.43,1.43,0,0,1,1.42-1.42h2.25a1.43,1.43,0,0,1,1.42,1.42"/><rect class="cls-3" x="210.27" y="249.2" width="1.92" height="5.98" transform="translate(-116.46 223.23) rotate(-45)"/><path class="cls-4" d="M209.88,249.31l-1.59,1.59a1.43,1.43,0,0,1-2,0l-1.59-1.59a1.41,1.41,0,0,1,0-2l1.59-1.6a1.43,1.43,0,0,1,2,0l1.59,1.6a1.43,1.43,0,0,1,0,2"/><rect class="cls-3" x="234.24" y="251.68" width="5.98" height="1.92" transform="translate(-109.16 241.74) rotate(-45)"/><path class="cls-4" d="M240.11,251.29l-1.59-1.59a1.43,1.43,0,0,1,0-2l1.59-1.59a1.43,1.43,0,0,1,2,0l1.59,1.59a1.41,1.41,0,0,1,0,2l-1.59,1.59a1.41,1.41,0,0,1-2,0"/><rect class="cls-3" x="236.09" y="275.25" width="1.92" height="5.98" transform="translate(-127.32 249.12) rotate(-45)"/><path class="cls-4" d="M238.4,281.13l1.59-1.59a1.41,1.41,0,0,1,2,0l1.59,1.59a1.43,1.43,0,0,1,0,2L242,284.73a1.43,1.43,0,0,1-2,0l-1.59-1.59a1.43,1.43,0,0,1,0-2"/><rect class="cls-3" x="208.16" y="277.63" width="5.98" height="1.92" transform="translate(-135.15 230.9) rotate(-45)"/><path class="cls-4" d="M208.27,279.93l1.59,1.59a1.43,1.43,0,0,1,0,2l-1.59,1.59a1.41,1.41,0,0,1-2,0l-1.59-1.59a1.41,1.41,0,0,1,0-2l1.59-1.59a1.43,1.43,0,0,1,2,0"/><path d="M224,250.06a15.26,15.26,0,1,1-6,1.2,15.18,15.18,0,0,1,6-1.2m0-2.51a17.83,17.83,0,1,0,17.83,17.83A17.83,17.83,0,0,0,224,247.55"/><path d="M228.36,277.64l-.44-1.56c4.63-1.34,6.51-4.24,6.72-6.51a2.52,2.52,0,0,0-1-2.55c-2.2-1.09-4-1.21-6.58,1.47a8.3,8.3,0,0,1-6.84,2.11,8.08,8.08,0,0,1-6.11-3.89c-1.1-1.89-.75-3.22-.26-4,1.44-2.29,5.86-2.8,9.22-2.54a3.72,3.72,0,0,0,3.29-1.74,3.55,3.55,0,0,0,.55-3.34,2.22,2.22,0,0,0-2-1.12,9.74,9.74,0,0,0-7.81,3.17l-1.26-1a11.26,11.26,0,0,1,9.18-3.77,3.83,3.83,0,0,1,3.39,2,5.13,5.13,0,0,1-.67,5,5.28,5.28,0,0,1-4.76,2.44c-3.64-.28-6.89.47-7.71,1.78-.14.22-.56.88.28,2.32a6.47,6.47,0,0,0,4.91,3.1,6.67,6.67,0,0,0,5.47-1.63,8,8,0,0,1,4.23-2.6,6.64,6.64,0,0,1,4.25.81,4,4,0,0,1,1.84,4.15,7.9,7.9,0,0,1-2.08,4.5,12.12,12.12,0,0,1-5.81,3.42"/><circle class="cls-2" cx="280" cy="325.49" r="26.5"/><rect class="cls-3" x="279.05" y="304.08" width="1.92" height="5.98"/><path class="cls-4" d="M281.09,304.08h-2.25a1.43,1.43,0,0,1-1.42-1.43V300.4a1.43,1.43,0,0,1,1.42-1.42h2.25a1.43,1.43,0,0,1,1.43,1.42v2.25a1.43,1.43,0,0,1-1.43,1.43"/><rect class="cls-3" x="295.36" y="324.45" width="5.98" height="1.92"/><path class="cls-4" d="M301.34,326.5v-2.25a1.43,1.43,0,0,1,1.42-1.42H305a1.43,1.43,0,0,1,1.43,1.42v2.25a1.43,1.43,0,0,1-1.43,1.42h-2.25a1.43,1.43,0,0,1-1.42-1.42"/><rect class="cls-3" x="279.05" y="340.92" width="1.92" height="5.98"/><path class="cls-4" d="M278.92,346.9h2.25a1.43,1.43,0,0,1,1.42,1.42v2.25a1.43,1.43,0,0,1-1.42,1.42h-2.25a1.43,1.43,0,0,1-1.43-1.42v-2.25a1.43,1.43,0,0,1,1.43-1.42"/><rect class="cls-3" x="258.59" y="324.38" width="5.98" height="1.92"/><path class="cls-4" d="M258.59,324.25v2.25a1.43,1.43,0,0,1-1.42,1.42h-2.25a1.43,1.43,0,0,1-1.42-1.42v-2.25a1.43,1.43,0,0,1,1.42-1.42h2.25a1.43,1.43,0,0,1,1.42,1.42"/><rect class="cls-3" x="266.27" y="309.2" width="1.92" height="5.98" transform="translate(-142.48 280.4) rotate(-45)"/><path class="cls-4" d="M265.88,309.31l-1.59,1.59a1.43,1.43,0,0,1-2,0l-1.59-1.59a1.41,1.41,0,0,1,0-2l1.59-1.6a1.43,1.43,0,0,1,2,0l1.59,1.6a1.43,1.43,0,0,1,0,2"/><rect class="cls-3" x="290.24" y="311.68" width="5.98" height="1.92" transform="translate(-135.18 298.91) rotate(-45)"/><path class="cls-4" d="M296.11,311.29l-1.59-1.59a1.43,1.43,0,0,1,0-2l1.59-1.59a1.43,1.43,0,0,1,2,0l1.59,1.59a1.41,1.41,0,0,1,0,2l-1.59,1.59a1.41,1.41,0,0,1-2,0"/><rect class="cls-3" x="292.09" y="335.25" width="1.92" height="5.98" transform="translate(-153.34 306.29) rotate(-45)"/><path class="cls-4" d="M294.4,341.13l1.59-1.59a1.41,1.41,0,0,1,2,0l1.59,1.59a1.43,1.43,0,0,1,0,2L298,344.73a1.43,1.43,0,0,1-2,0l-1.59-1.59a1.43,1.43,0,0,1,0-2"/><rect class="cls-3" x="264.16" y="337.63" width="5.98" height="1.92" transform="translate(-161.17 288.08) rotate(-45)"/><path class="cls-4" d="M264.27,339.93l1.59,1.59a1.43,1.43,0,0,1,0,2l-1.59,1.59a1.41,1.41,0,0,1-2,0l-1.59-1.59a1.41,1.41,0,0,1,0-2l1.59-1.59a1.43,1.43,0,0,1,2,0"/><path d="M280,310.06a15.26,15.26,0,1,1-6,1.2,15.18,15.18,0,0,1,6-1.2m0-2.51a17.83,17.83,0,1,0,17.83,17.83A17.83,17.83,0,0,0,280,307.55"/><path d="M284.36,337.64l-.44-1.56c4.63-1.34,6.51-4.24,6.72-6.51a2.52,2.52,0,0,0-1-2.55c-2.2-1.09-4-1.21-6.58,1.47a8.3,8.3,0,0,1-6.84,2.11,8.08,8.08,0,0,1-6.11-3.89c-1.1-1.89-.75-3.22-.26-4,1.44-2.29,5.86-2.8,9.22-2.54a3.72,3.72,0,0,0,3.29-1.74,3.55,3.55,0,0,0,.55-3.34,2.22,2.22,0,0,0-2-1.12,9.74,9.74,0,0,0-7.81,3.17l-1.26-1a11.26,11.26,0,0,1,9.18-3.77,3.83,3.83,0,0,1,3.39,2,5.13,5.13,0,0,1-.67,5,5.28,5.28,0,0,1-4.76,2.44c-3.64-.28-6.89.47-7.71,1.78-.14.22-.56.88.28,2.32a6.47,6.47,0,0,0,4.91,3.1,6.67,6.67,0,0,0,5.47-1.63,8,8,0,0,1,4.23-2.6,6.64,6.64,0,0,1,4.25.81,4,4,0,0,1,1.84,4.15,7.9,7.9,0,0,1-2.08,4.5,12.12,12.12,0,0,1-5.81,3.42"/><circle class="cls-2" cx="244" cy="375.49" r="26.5"/><rect class="cls-3" x="243.05" y="354.08" width="1.92" height="5.98"/><path class="cls-4" d="M245.09,354.08h-2.25a1.43,1.43,0,0,1-1.42-1.43V350.4a1.43,1.43,0,0,1,1.42-1.42h2.25a1.43,1.43,0,0,1,1.43,1.42v2.25a1.43,1.43,0,0,1-1.43,1.43"/><rect class="cls-3" x="259.36" y="374.45" width="5.98" height="1.92"/><path class="cls-4" d="M265.34,376.5v-2.25a1.43,1.43,0,0,1,1.42-1.42H269a1.43,1.43,0,0,1,1.43,1.42v2.25a1.43,1.43,0,0,1-1.43,1.42h-2.25a1.43,1.43,0,0,1-1.42-1.42"/><rect class="cls-3" x="243.05" y="390.92" width="1.92" height="5.98"/><path class="cls-4" d="M242.92,396.9h2.25a1.43,1.43,0,0,1,1.42,1.42v2.25a1.43,1.43,0,0,1-1.42,1.42h-2.25a1.43,1.43,0,0,1-1.43-1.42v-2.25a1.43,1.43,0,0,1,1.43-1.42"/><rect class="cls-3" x="222.59" y="374.38" width="5.98" height="1.92"/><path class="cls-4" d="M222.59,374.25v2.25a1.43,1.43,0,0,1-1.42,1.42h-2.25a1.43,1.43,0,0,1-1.42-1.42v-2.25a1.43,1.43,0,0,1,1.42-1.42h2.25a1.43,1.43,0,0,1,1.42,1.42"/><rect class="cls-3" x="230.27" y="359.2" width="1.92" height="5.98" transform="translate(-188.38 269.59) rotate(-45)"/><path class="cls-4" d="M229.88,359.31l-1.59,1.59a1.43,1.43,0,0,1-2,0l-1.59-1.59a1.41,1.41,0,0,1,0-2l1.59-1.6a1.43,1.43,0,0,1,2,0l1.59,1.6a1.43,1.43,0,0,1,0,2"/><rect class="cls-3" x="254.24" y="361.68" width="5.98" height="1.92" transform="translate(-181.08 288.1) rotate(-45)"/><path class="cls-4" d="M260.11,361.29l-1.59-1.59a1.43,1.43,0,0,1,0-2l1.59-1.59a1.43,1.43,0,0,1,2,0l1.59,1.59a1.41,1.41,0,0,1,0,2l-1.59,1.59a1.41,1.41,0,0,1-2,0"/><rect class="cls-3" x="256.09" y="385.25" width="1.92" height="5.98" transform="translate(-199.24 295.48) rotate(-45)"/><path class="cls-4" d="M258.4,391.13l1.59-1.59a1.41,1.41,0,0,1,2,0l1.59,1.59a1.43,1.43,0,0,1,0,2L262,394.73a1.43,1.43,0,0,1-2,0l-1.59-1.59a1.43,1.43,0,0,1,0-2"/><rect class="cls-3" x="228.16" y="387.63" width="5.98" height="1.92" transform="translate(-207.07 277.26) rotate(-45)"/><path class="cls-4" d="M228.27,389.93l1.59,1.59a1.43,1.43,0,0,1,0,2l-1.59,1.59a1.41,1.41,0,0,1-2,0l-1.59-1.59a1.41,1.41,0,0,1,0-2l1.59-1.59a1.43,1.43,0,0,1,2,0"/><path d="M244,360.06a15.26,15.26,0,1,1-6,1.2,15.18,15.18,0,0,1,6-1.2m0-2.51a17.83,17.83,0,1,0,17.83,17.83A17.83,17.83,0,0,0,244,357.55"/><path d="M248.36,387.64l-.44-1.56c4.63-1.34,6.51-4.24,6.72-6.51a2.52,2.52,0,0,0-1-2.55c-2.2-1.09-4-1.21-6.58,1.47a8.3,8.3,0,0,1-6.84,2.11,8.08,8.08,0,0,1-6.11-3.89c-1.1-1.89-.75-3.22-.26-4,1.44-2.29,5.86-2.8,9.22-2.54a3.72,3.72,0,0,0,3.29-1.74,3.55,3.55,0,0,0,.55-3.34,2.22,2.22,0,0,0-2-1.12,9.74,9.74,0,0,0-7.81,3.17l-1.26-1a11.26,11.26,0,0,1,9.18-3.77,3.83,3.83,0,0,1,3.39,2,5.13,5.13,0,0,1-.67,5,5.28,5.28,0,0,1-4.76,2.44c-3.64-.28-6.89.47-7.71,1.78-.14.22-.56.88.28,2.32a6.47,6.47,0,0,0,4.91,3.1,6.67,6.67,0,0,0,5.47-1.63,8,8,0,0,1,4.23-2.6,6.64,6.64,0,0,1,4.25.81,4,4,0,0,1,1.84,4.15,7.9,7.9,0,0,1-2.08,4.5,12.12,12.12,0,0,1-5.81,3.42"/></svg>